<?xml version="1.0" standalone="no"?>
<!DOCTYPE svg PUBLIC "-//W3C//DTD SVG 20010904//EN"
 "http://www.w3.org/TR/2001/REC-SVG-20010904/DTD/svg10.dtd">
<svg version="1.0" xmlns="http://www.w3.org/2000/svg"
 width="1280.000000pt" height="1037.000000pt" viewBox="0 0 1280.000000 1037.000000"
 preserveAspectRatio="xMidYMid meet">

<g transform="translate(0.000000,1037.000000) scale(0.100000,-0.100000)"
fill="#000000" stroke="none">
<path d="M1670 5165 l0 -3535 2343 0 2342 0 0 974 c0 536 -4 978 -8 982 -4 5
-12 2 -16 -5 -6 -9 -18 -11 -35 -7 -14 3 -26 2 -26 -3 0 -5 -9 -11 -20 -14
-11 -3 -20 -11 -20 -19 0 -10 3 -9 10 2 5 8 10 10 10 4 0 -17 -46 -44 -75 -44
-14 0 -25 -6 -25 -12 0 -21 -120 -69 -183 -73 -15 -2 -33 -8 -41 -14 -10 -8
-20 -8 -40 2 -14 8 -22 18 -18 22 4 4 0 6 -8 3 -8 -3 -14 -12 -12 -22 2 -9 -2
-16 -8 -16 -6 0 -9 4 -5 9 3 5 0 13 -6 17 -6 3 -14 2 -18 -4 -5 -8 -73 -1
-128 14 -31 8 -8 19 45 22 31 1 65 5 75 8 27 8 20 25 -8 18 -17 -4 -25 -2 -25
7 0 12 -2 12 -9 0 -6 -9 -18 -12 -37 -7 -16 4 -46 9 -66 11 -43 3 -203 81
-234 113 -12 12 -25 22 -28 22 -16 0 -107 100 -101 110 3 5 3 10 -2 10 -4 0
-16 18 -27 40 -10 21 -25 41 -32 44 -8 3 -14 12 -14 21 0 8 -4 15 -10 15 -5 0
-10 11 -10 24 0 13 -5 26 -11 28 -5 2 -13 39 -16 83 -3 45 -12 87 -19 96 -13
14 -13 27 1 75 4 12 2 25 -4 28 -7 5 -7 14 1 31 10 22 7 29 -25 60 -40 39 -47
42 -47 20 0 -19 -14 -19 -34 0 -9 9 -17 11 -21 5 -3 -5 -1 -10 5 -10 6 0 2
-14 -10 -30 -24 -34 -58 -43 -40 -11 15 28 12 35 -7 20 -9 -8 -24 -13 -35 -11
-10 2 -18 -2 -18 -7 0 -6 10 -11 23 -11 20 -1 21 -2 5 -14 -10 -7 -15 -16 -11
-19 3 -4 -3 -7 -15 -7 -24 0 -30 15 -9 23 9 4 8 8 -3 16 -13 10 -11 14 10 30
14 11 23 21 20 23 -3 2 -17 10 -32 18 -24 11 -28 19 -28 56 0 30 -4 42 -12 40
-7 -1 -10 -1 -5 1 4 3 7 18 7 34 0 16 5 29 10 29 11 0 -7 39 -25 53 -6 5 0 7
13 4 26 -6 26 -4 10 23 -10 16 -10 24 0 40 10 17 10 23 -3 36 -8 9 -15 21 -15
29 0 23 12 45 21 39 5 -3 9 7 9 21 0 14 -4 24 -10 20 -12 -8 -6 65 7 74 6 3
13 19 17 34 4 15 11 25 16 22 6 -3 10 1 10 9 0 9 -4 16 -10 16 -16 0 -12 18
15 72 14 27 25 55 25 61 1 16 36 57 49 57 6 0 11 6 11 14 0 9 8 12 24 9 19 -4
25 0 28 16 4 27 22 28 26 2 3 -19 32 -39 32 -22 0 5 -5 11 -11 13 -7 2 -7 12
0 31 7 18 15 25 23 21 6 -4 23 -9 37 -10 63 -7 88 -15 166 -50 44 -20 61 -25
88 -27 9 -1 17 -6 17 -13 0 -6 21 -17 48 -25 26 -7 61 -21 77 -30 41 -24 178
-69 209 -69 30 0 31 -5 11 -40 -8 -14 -14 -45 -15 -68 0 -49 20 -84 82 -144
21 -21 38 -44 38 -53 0 -8 3 -15 8 -15 4 0 20 -23 36 -50 54 -90 180 -134 273
-95 19 8 46 15 60 15 14 0 21 4 18 10 -3 6 -15 10 -26 10 -25 0 -49 22 -49 45
0 9 -4 13 -10 10 -5 -3 -10 1 -10 10 0 9 -5 13 -11 9 -8 -4 -9 3 -3 27 9 37 8
59 -5 143 0 4 -7 6 -14 3 -8 -3 -20 -1 -28 4 -11 8 -11 9 3 7 9 -2 17 2 17 7
0 6 -6 9 -14 7 -7 -1 -16 2 -20 8 -8 12 -45 13 -45 1 0 -5 6 -12 13 -14 9 -4
8 -8 -3 -16 -10 -7 -18 -6 -27 1 -7 6 -13 7 -13 4 0 -4 -9 2 -20 12 -11 10
-18 26 -15 34 4 9 -3 18 -16 24 -42 19 -56 134 -16 134 7 0 22 7 33 16 19 15
18 15 -4 11 -13 -3 -20 -1 -16 5 3 5 16 7 28 3 11 -3 34 -8 51 -11 45 -6 68
-36 69 -86 1 -40 3 -43 30 -46 18 -2 26 0 21 7 -6 11 6 15 32 12 7 -1 10 5 7
12 -3 8 2 17 11 21 9 3 14 10 10 16 -3 5 4 22 15 38 12 16 23 37 24 48 2 11
12 20 25 22 18 3 22 9 18 28 -2 13 0 21 4 18 5 -3 9 25 9 61 l0 67 -57 -51
c-31 -28 -61 -51 -67 -51 -5 0 -17 -6 -25 -13 -35 -30 -164 -60 -258 -61 -84
-1 -90 -2 -77 -18 18 -19 6 -29 -25 -21 -18 4 -20 8 -9 15 9 7 7 8 -7 3 -31
-12 -71 -7 -133 16 -32 11 -64 22 -72 23 -34 5 -130 38 -135 47 -4 5 -15 9
-26 9 -10 0 -19 6 -20 13 0 6 -4 3 -9 -8 -7 -18 -8 -19 -15 -2 -4 9 -13 17
-21 17 -8 0 -14 7 -14 15 0 8 -6 15 -14 15 -21 0 -27 15 -17 42 l10 23 2 -25
c1 -18 3 -20 6 -7 3 10 -1 24 -7 32 -7 8 -9 15 -4 15 10 0 11 76 1 86 -3 4 -2
15 3 24 8 15 6 17 -13 13 -17 -4 -19 -2 -8 5 8 6 16 21 17 34 2 13 0 17 -2 11
-3 -7 -12 -13 -20 -13 -9 0 -12 5 -8 12 12 20 11 56 -2 51 -7 -2 -15 0 -19 6
-3 6 1 11 9 11 12 0 16 10 16 40 0 29 -4 40 -15 40 -18 0 -19 -12 -3 -28 9 -9
9 -15 0 -24 -9 -9 -13 -7 -17 8 -4 10 -13 31 -21 46 -13 24 -13 28 3 37 10 5
18 18 18 28 0 11 9 19 23 21 16 3 22 8 18 19 -3 8 1 21 9 29 13 14 15 13 15
-2 0 -20 13 -11 16 11 2 14 -2 16 -33 19 -7 1 -12 6 -10 11 1 6 8 9 15 9 6 -1
12 2 12 7 0 5 -8 9 -17 10 -11 0 -13 3 -5 6 6 2 12 13 12 23 0 18 39 50 62 50
20 0 39 -59 27 -82 -6 -10 -8 -29 -6 -41 4 -21 4 -21 6 2 1 20 3 21 16 11 10
-9 15 -9 15 -1 0 6 7 11 15 11 8 0 15 9 15 19 0 11 7 26 15 34 7 8 17 26 20
40 4 14 15 33 26 43 10 9 19 21 19 27 0 16 104 111 108 99 2 -7 11 -12 19 -12
13 0 13 3 3 15 -8 9 -8 15 -2 15 6 0 14 -9 17 -20 8 -24 30 -26 39 -4 3 8 2
12 -4 9 -6 -3 -10 -1 -10 4 0 15 30 14 61 -3 18 -9 31 -10 40 -4 11 8 10 9 -3
4 -12 -3 -18 0 -18 9 0 14 5 16 38 19 7 1 17 8 22 16 9 13 11 13 19 1 8 -12
12 -12 25 -2 9 7 22 11 30 8 7 -3 19 0 26 6 10 9 12 9 8 -3 -7 -19 38 -26 58
-9 14 11 38 3 29 -10 -2 -5 8 -8 23 -8 15 0 35 -3 45 -7 10 -5 17 -4 17 2 0
13 -95 72 -115 72 -7 0 -17 5 -20 10 -10 16 11 12 76 -15 34 -13 65 -22 70
-20 4 3 11 -1 16 -8 4 -7 24 -22 43 -32 19 -10 42 -22 50 -26 8 -5 22 -12 30
-16 8 -4 18 -11 22 -17 4 -6 8 42 8 106 0 104 -2 118 -19 127 -10 6 -21 8 -24
4 -4 -3 -9 2 -13 11 -4 9 -17 16 -34 16 -18 0 -29 6 -32 18 -7 26 -62 26 -134
3 -63 -21 -74 -20 -92 10 -9 13 -9 18 -2 14 7 -4 14 2 17 14 4 17 8 19 19 10
19 -16 30 -3 14 15 -10 13 -7 15 25 11 36 -5 37 -4 31 20 -6 24 -5 25 13 15
17 -9 19 -8 15 5 -4 9 0 15 10 15 8 0 20 9 26 20 8 15 17 19 35 14 17 -4 25
-2 25 7 1 9 4 8 11 -3 12 -21 39 -24 39 -4 0 22 37 27 43 5 3 -11 10 -19 16
-19 10 0 13 260 15 1635 l1 640 -2342 3 -2343 2 0 -3535z m1098 3288 c-15 -18
-2 -16 16 3 20 19 39 9 31 -17 -6 -18 9 -28 17 -11 6 13 128 1 128 -13 0 -14
22 -25 51 -25 12 0 19 -7 19 -19 0 -11 5 -23 11 -27 8 -4 9 0 4 15 -3 11 -4
21 -2 21 10 0 75 -35 104 -56 20 -15 38 -21 49 -17 10 4 15 2 11 -3 -3 -6 14
-10 44 -9 27 1 49 -2 49 -7 0 -4 6 -8 13 -8 33 -1 96 -102 83 -135 -3 -9 0
-15 9 -15 8 0 16 -7 16 -15 3 -28 4 -33 12 -41 4 -4 7 -19 7 -33 0 -14 11 -59
25 -101 14 -41 32 -102 41 -135 9 -33 22 -69 29 -80 23 -38 38 -96 27 -107
-10 -10 -33 -17 -182 -53 -109 -26 -190 -61 -190 -81 0 -8 -4 -14 -10 -14 -5
0 -10 -8 -10 -17 0 -17 -27 -53 -41 -53 -4 0 -5 10 -3 23 4 21 4 21 -6 -2 -6
-13 -22 -35 -35 -49 -27 -27 -32 -42 -14 -42 8 0 10 -14 6 -40 -4 -35 -3 -40
15 -40 17 0 18 -2 8 -15 -7 -9 -10 -19 -6 -22 4 -4 11 -1 16 7 7 10 9 0 8 -33
-1 -26 2 -50 5 -54 4 -3 7 3 7 15 0 12 8 23 20 27 21 7 28 25 10 25 -5 0 -10
-5 -10 -12 0 -9 -3 -9 -12 0 -16 16 9 44 33 37 23 -8 34 12 18 31 -11 14 -15
13 -29 -7 -19 -24 -40 -19 -40 9 0 13 9 18 33 20 17 1 38 10 44 19 7 9 14 15
15 12 2 -2 11 -20 22 -40 16 -32 23 -37 52 -36 37 1 49 -6 39 -23 -5 -7 -19
-10 -37 -6 -42 8 -82 -3 -68 -19 5 -6 7 -15 3 -18 -3 -4 8 -10 25 -13 18 -4
32 -10 32 -15 0 -5 7 -9 15 -9 8 0 15 -4 15 -10 0 -6 40 -9 105 -7 58 1 105 6
105 11 0 5 3 6 7 3 3 -4 11 -3 18 3 20 16 54 0 58 -29 4 -25 4 -24 6 4 0 17
-6 41 -15 54 -16 22 -16 24 0 33 13 7 16 17 11 40 -7 28 -5 29 15 23 19 -6 22
-4 17 9 -4 10 -3 15 3 11 6 -3 10 -20 10 -36 0 -18 4 -28 10 -24 6 3 10 -5 10
-19 0 -14 -4 -27 -9 -30 -5 -4 -7 3 -4 14 4 15 2 19 -10 14 -11 -4 -17 2 -20
18 -3 17 -5 15 -6 -10 0 -19 -5 -31 -11 -27 -5 3 -10 2 -10 -3 0 -6 7 -13 16
-16 12 -4 15 -15 12 -36 -4 -29 5 -40 17 -20 10 17 25 11 35 -12 9 -23 9 -23
10 2 1 14 9 -6 18 -45 10 -45 16 -122 16 -215 1 -138 0 -149 -28 -218 -28 -70
-45 -90 -47 -54 0 12 -2 13 -6 3 -3 -8 2 -20 12 -27 17 -13 17 -15 -6 -33 -14
-12 -18 -20 -11 -21 10 0 9 -4 -3 -16 -9 -10 -14 -25 -12 -35 4 -13 0 -19 -11
-19 -15 0 -15 -2 -2 -11 11 -8 12 -12 3 -16 -7 -2 -13 -14 -13 -25 0 -11 -8
-22 -20 -25 -20 -5 -28 -23 -10 -23 18 0 10 -22 -10 -27 -18 -5 -25 -15 -21
-36 1 -5 -3 -6 -9 -2 -5 3 -10 -2 -10 -12 0 -10 -9 -24 -21 -31 -11 -7 -29
-33 -40 -58 -11 -24 -24 -44 -29 -44 -4 0 -12 -15 -16 -32 -3 -18 -15 -44 -25
-57 -11 -13 -19 -32 -19 -41 0 -10 -7 -23 -15 -30 -8 -7 -15 -19 -15 -28 0 -8
-11 -30 -25 -48 -14 -18 -25 -37 -25 -43 0 -6 -6 -11 -13 -11 -8 0 -22 -9 -32
-20 -19 -21 -55 -27 -55 -10 0 6 -4 10 -10 10 -5 0 -10 -9 -10 -20 0 -11 -4
-20 -10 -20 -5 0 -10 6 -10 14 0 7 -7 19 -15 26 -8 7 -15 8 -15 3 0 -6 -12 -8
-27 -6 -16 2 -35 5 -43 6 -23 3 -80 -21 -80 -32 0 -6 -9 -11 -19 -11 -11 0
-26 -6 -33 -12 -15 -15 -68 -23 -68 -11 0 4 -15 9 -33 10 -17 2 -37 10 -43 18
-9 12 -13 13 -17 3 -3 -9 -9 -8 -20 7 -8 10 -13 25 -10 32 3 8 -2 13 -13 11
-38 -3 -51 3 -62 27 -6 13 -23 27 -37 31 -14 3 -25 10 -25 15 0 5 -6 8 -12 7
-7 -2 -12 3 -10 10 1 6 -1 11 -5 10 -16 -3 -63 26 -63 39 0 7 -5 13 -11 13 -5
0 -7 5 -4 10 3 6 2 10 -2 10 -5 0 -26 22 -47 49 -23 29 -45 47 -53 44 -7 -3
-23 7 -34 21 -11 14 -26 23 -32 19 -6 -4 -8 0 -4 10 8 21 -12 34 -24 16 -8
-12 -11 -12 -19 1 -5 8 -8 21 -5 28 7 19 -9 14 -25 -7 -16 -24 -33 -17 -25 10
8 25 -7 24 -30 -1 -14 -16 -20 -17 -27 -8 -12 19 -9 36 3 18 8 -12 9 -12 7 5
-1 11 1 26 5 32 6 10 0 11 -21 7 -21 -4 -31 -2 -35 10 -8 19 -33 21 -40 4 -4
-9 -6 -7 -6 3 -1 25 -35 51 -56 43 -16 -6 -17 -3 -12 25 4 20 3 30 -3 26 -6
-3 -11 -14 -11 -23 -1 -9 -4 -1 -8 18 -4 23 -14 38 -28 45 -24 10 -30 29 -14
40 5 3 12 1 16 -5 10 -17 23 -11 27 12 2 18 12 24 47 30 25 4 48 13 52 20 7
10 12 10 28 1 14 -9 22 -9 27 -2 3 6 12 8 19 5 25 -9 29 34 6 55 -12 11 -21
27 -21 37 0 15 -2 15 -10 2 -8 -13 -10 -12 -11 5 -1 19 -2 19 -6 1 -4 -15 -7
-16 -14 -5 -6 10 -9 10 -9 2 0 -7 -8 -13 -17 -12 -11 0 -13 3 -5 6 18 7 15 23
-5 24 -14 0 -13 2 5 9 23 10 29 25 13 35 -5 3 -17 -2 -25 -11 -14 -14 -18 -14
-31 0 -8 8 -15 22 -15 31 0 8 -7 18 -15 21 -8 4 -12 10 -9 15 10 17 -19 9 -33
-8 -13 -16 -14 -16 -9 -1 3 9 0 18 -7 21 -7 2 -12 12 -12 23 0 13 -7 19 -22
19 -11 0 -25 3 -29 8 -4 4 0 7 9 7 10 0 17 5 17 11 0 6 -8 8 -18 5 -14 -5 -22
3 -36 34 -9 22 -15 44 -11 50 3 5 -1 10 -10 10 -11 0 -15 5 -11 16 3 8 -1 26
-10 39 -9 13 -13 29 -9 35 3 5 3 16 -2 23 -4 6 -8 21 -9 32 0 11 -4 43 -8 72
-7 50 2 88 26 104 6 4 10 23 11 43 0 19 4 31 8 25 4 -7 9 -4 13 9 4 13 13 19
22 15 8 -3 14 1 14 11 0 19 21 21 38 4 9 -9 12 -8 12 4 0 14 4 14 24 5 l25
-12 -22 -24 -22 -24 30 6 c17 4 24 4 18 1 -19 -8 -17 -48 2 -40 10 4 19 -2 24
-16 5 -14 10 -17 15 -10 10 17 46 15 52 -3 4 -10 13 -13 26 -9 15 4 18 3 13
-6 -6 -9 -3 -9 15 0 15 8 30 9 52 1 20 -7 36 -7 49 -1 15 9 17 8 12 -6 -5 -12
-3 -15 6 -9 7 4 24 1 38 -6 20 -11 26 -11 32 0 7 10 9 10 14 -2 5 -14 108 -40
130 -32 6 3 26 7 42 9 51 6 76 18 71 32 -3 8 -1 14 4 14 6 0 10 5 10 11 0 5
-4 7 -10 4 -5 -3 -10 3 -10 14 0 22 -33 30 -45 11 -8 -13 -115 -13 -115 -1 0
5 8 12 18 15 9 3 -2 4 -26 2 -30 -3 -42 -1 -39 7 2 7 21 12 41 12 46 0 76 32
76 81 0 19 5 34 11 34 36 0 125 -83 120 -113 -2 -15 3 -18 31 -15 32 3 33 4
33 47 0 27 5 46 13 48 6 3 12 -1 12 -7 0 -7 6 -10 13 -7 7 3 24 -1 38 -9 18
-10 20 -13 7 -14 -32 0 -19 -16 22 -27 32 -8 40 -8 40 3 0 8 -6 14 -14 14 -16
0 -10 40 8 52 7 5 3 8 -8 8 -20 0 -20 0 0 15 18 13 18 15 2 45 -10 18 -18 38
-18 45 0 8 -10 15 -22 17 -18 2 -23 9 -23 35 0 17 -3 29 -8 26 -4 -2 -10 3
-13 11 -3 9 -12 16 -19 16 -7 0 -15 6 -18 14 -3 8 -35 18 -83 25 -43 6 -85 18
-94 26 -9 8 -43 16 -75 19 -33 2 -91 10 -128 16 -65 11 -116 10 -181 -6 -21
-5 -27 -4 -22 5 4 6 2 11 -3 11 -6 0 -11 -6 -11 -12 -1 -26 -24 28 -25 57 -1
17 -5 39 -10 49 -6 13 -5 17 3 12 17 -10 25 13 10 31 -11 15 -11 16 4 10 10
-3 20 -2 23 3 4 6 -2 10 -12 11 -10 0 -13 3 -5 6 22 9 13 23 -15 23 -25 1 -26
2 -11 14 10 7 14 17 10 22 -4 5 7 -4 24 -19 l31 -28 17 26 c16 24 16 25 -4 25
-13 0 -18 4 -15 11 4 6 13 8 19 6 7 -3 19 -1 27 4 11 7 11 9 -3 9 -10 0 -18 5
-18 10 0 10 21 14 47 11 21 -3 11 47 -10 53 -13 3 -17 0 -13 -10 3 -8 2 -14
-2 -14 -10 0 -32 22 -32 31 0 12 33 16 57 7 13 -4 33 -4 45 1 23 9 23 9 -4 16
-16 4 -25 11 -22 16 3 5 17 6 31 3 19 -5 24 -4 18 6 -5 7 -18 10 -37 6 -26 -5
-27 -4 -14 9 8 8 22 15 30 15 9 0 16 4 16 8 0 5 10 14 23 20 l22 11 -22 0
c-13 1 -23 -3 -23 -9 0 -5 -4 -10 -10 -10 -5 0 -10 6 -10 14 0 19 54 30 80 16
20 -11 21 -10 11 8 -6 11 -16 23 -23 25 -8 3 -5 6 5 6 34 2 88 61 56 61 -7 0
1 10 17 22 53 41 68 58 71 80 4 28 7 31 38 31 28 0 31 7 13 25 -10 10 -10 15
2 22 25 16 82 5 102 -20 10 -13 22 -20 25 -16 4 4 2 10 -5 15 -8 5 -6 11 7 23
14 11 22 13 30 5 14 -14 81 56 81 84 0 18 3 17 24 -8 18 -20 21 -31 14 -40z
m-438 -242 c-1 -16 -19 -33 -29 -26 -9 5 -9 10 -1 20 6 7 8 21 4 31 -5 18 -5
18 10 0 9 -11 16 -22 16 -25z m-175 -160 c-3 -6 -11 -11 -17 -11 -6 0 -6 6 2
15 14 17 26 13 15 -4z m129 -479 c9 -5 40 -10 99 -15 17 -1 25 -7 22 -14 -2
-7 1 -13 8 -14 9 0 9 -2 0 -6 -25 -10 -13 -25 15 -19 l27 6 -26 -14 c-35 -20
-260 -18 -267 3 -4 11 -6 11 -13 0 -7 -11 -11 -10 -23 6 -8 11 -12 24 -9 29 4
5 -4 7 -15 4 -12 -4 -22 -3 -22 1 0 11 44 36 75 42 31 7 112 1 129 -9z m1261
-78 c0 -5 -7 -19 -15 -31 -13 -18 -22 -20 -62 -16 -40 5 -45 8 -33 19 7 8 20
14 27 14 10 0 9 3 -2 10 -10 6 -5 9 18 8 18 -1 35 2 39 6 9 8 28 2 28 -10z
m39 4 c-5 -8 -2 -9 10 -5 12 5 15 3 10 -6 -16 -27 -27 -36 -36 -31 -6 4 -5 10
3 16 11 7 11 11 1 15 -13 5 -7 23 9 23 6 0 7 -5 3 -12z m-1202 -70 c-8 -8 -17
-8 -34 0 -22 10 -21 11 12 11 26 1 31 -2 22 -11z m48 -5 c0 -10 -4 -14 -8 -8
-4 6 -11 13 -16 18 -5 4 -2 7 7 7 10 0 17 -8 17 -17z m370 -43 c0 -5 -4 -10
-10 -10 -5 0 -10 5 -10 10 0 6 5 10 10 10 6 0 10 -4 10 -10z m540 -40 c0 -5
-4 -10 -9 -10 -6 0 -13 5 -16 10 -3 6 1 10 9 10 9 0 16 -4 16 -10z m105 -18
c-2 -3 3 -11 11 -19 8 -9 13 -22 10 -29 -3 -8 -1 -14 4 -14 6 0 10 -5 10 -11
0 -5 -5 -7 -11 -3 -6 3 -15 1 -19 -6 -8 -13 -56 -17 -67 -6 -4 3 -1 12 5 18 7
7 12 24 12 38 0 32 6 39 31 37 10 -1 16 -3 14 -5z m-895 -122 c0 -5 -7 -10
-15 -10 -8 0 -15 5 -15 10 0 6 7 10 15 10 8 0 15 -4 15 -10z m-103 -16 c-3 -3
-12 -4 -19 -1 -8 3 -5 6 6 6 11 1 17 -2 13 -5z m-447 -524 c0 -5 -5 -10 -11
-10 -5 0 -7 5 -4 10 3 6 8 10 11 10 2 0 4 -4 4 -10z m137 -136 c-3 -3 -12 -4
-19 -1 -8 3 -5 6 6 6 11 1 17 -2 13 -5z m-141 -60 c-7 -18 -26 -18 -26 0 0 8
-6 17 -12 19 -8 4 -7 6 3 6 9 1 20 9 25 19 6 15 8 14 12 -6 2 -13 1 -30 -2
-38z m4341 -1 c-3 -10 -5 -4 -5 12 0 17 2 24 5 18 2 -7 2 -21 0 -30z m-4402
18 c3 -5 1 -12 -5 -16 -5 -3 -10 1 -10 9 0 18 6 21 15 7z m4282 -27 c-3 -3
-12 -4 -19 -1 -8 3 -5 6 6 6 11 1 17 -2 13 -5z m-4247 -110 c0 -8 -5 -12 -10
-9 -6 4 -8 11 -5 16 9 14 15 11 15 -7z m3728 -166 c30 -30 5 -37 -29 -8 -23
19 -23 19 -3 20 11 0 25 -5 32 -12z m302 -38 c13 -9 13 -10 0 -9 -8 0 -24 4
-35 9 l-20 9 20 0 c11 0 27 -4 35 -9z m-340 -74 c0 -3 -4 -8 -10 -11 -5 -3
-10 -1 -10 4 0 6 5 11 10 11 6 0 10 -2 10 -4z m-104 -113 c-10 -10 -19 5 -10
18 6 11 8 11 12 0 2 -7 1 -15 -2 -18z m-99 -15 c-21 -11 -38 -2 -31 17 5 12
10 12 27 4 18 -10 19 -12 4 -21z m-3364 -96 c26 -18 50 -32 52 -32 8 0 117
-86 150 -117 17 -16 57 -58 91 -94 105 -111 196 -158 268 -138 19 5 38 14 41
19 10 16 51 12 66 -6 10 -13 27 -15 76 -12 63 4 63 4 59 -22 -2 -14 -5 -28 -5
-31 -1 -4 -12 -10 -26 -13 -14 -4 -25 -13 -25 -21 0 -15 -16 -19 -52 -16 -10
1 -18 -3 -18 -8 0 -6 -3 -10 -7 -10 -19 3 -27 -2 -15 -10 11 -6 8 -15 -12 -37
-15 -16 -25 -24 -24 -17 2 6 -1 10 -7 10 -5 -1 -9 -8 -7 -14 2 -7 -4 -13 -13
-13 -8 0 -15 -5 -15 -11 0 -6 -6 -17 -14 -25 -11 -11 -16 -11 -19 -1 -3 7 -6
5 -6 -5 -1 -11 -9 -18 -22 -18 -16 0 -19 -4 -14 -21 6 -18 4 -21 -13 -17 -16
5 -21 0 -26 -23 -3 -16 -12 -29 -20 -29 -17 0 -29 -27 -16 -35 17 -11 11 -25
-10 -25 -12 0 -24 10 -30 23 -5 12 -9 16 -9 10 -1 -7 -19 -21 -41 -32 -39 -19
-40 -19 -40 0 0 14 -7 19 -30 19 -34 0 -34 1 -20 -35 7 -18 15 -25 25 -21 8 3
14 2 13 -2 -1 -4 4 -19 12 -34 12 -26 11 -30 -15 -54 l-29 -27 -15 22 c-17 26
-60 143 -68 186 -3 16 -16 46 -28 65 -87 140 -97 162 -91 193 12 55 17 244 7
222 -9 -18 -10 -17 -10 8 -1 20 -6 27 -21 27 -11 0 -20 7 -20 16 0 8 5 12 10
9 6 -3 10 3 10 14 0 12 -6 21 -13 21 -19 0 -117 169 -117 202 l0 29 28 -19
c15 -10 49 -33 75 -50z m57 -302 c0 -5 -2 -10 -4 -10 -3 0 -8 5 -11 10 -3 6
-1 10 4 10 6 0 11 -4 11 -10z m830 -25 c0 -2 -7 -5 -15 -9 -9 -3 -15 0 -15 9
0 9 6 12 15 9 8 -4 15 -7 15 -9z m-30 -46 c0 -10 -3 -19 -7 -19 -5 0 -8 11 -8
24 0 13 3 22 8 19 4 -2 7 -13 7 -24z m-33 -61 c-3 -8 -6 -5 -6 6 -1 11 2 17 5
13 3 -3 4 -12 1 -19z m-297 -263 c0 -11 -34 -44 -42 -39 -14 9 -9 32 10 37 26
7 32 7 32 2z m-60 -55 c0 -6 10 -8 24 -4 14 3 27 1 31 -6 5 -9 1 -10 -14 -5
-15 5 -21 2 -21 -9 0 -9 -4 -16 -10 -16 -5 0 -10 7 -10 15 0 8 -4 15 -10 15
-5 0 -10 5 -10 10 0 6 5 10 10 10 6 0 10 -5 10 -10z m2970 -20 c0 -5 -7 -10
-15 -10 -8 0 -15 5 -15 10 0 6 7 10 15 10 8 0 15 -4 15 -10z m-3160 -20 c0 -5
-2 -10 -4 -10 -3 0 -8 5 -11 10 -3 6 -1 10 4 10 6 0 11 -4 11 -10z m120 -24
c0 -7 -9 -16 -20 -19 -15 -4 -20 0 -20 14 0 12 7 19 20 19 11 0 20 -6 20 -14z
m-59 -24 c-7 -2 -18 1 -23 6 -8 8 -4 9 13 5 13 -4 18 -8 10 -11z m19 -262 c0
-5 -5 -10 -11 -10 -5 0 -7 5 -4 10 3 6 8 10 11 10 2 0 4 -4 4 -10z m2405 -230
c3 -5 1 -10 -4 -10 -6 0 -11 5 -11 10 0 6 2 10 4 10 3 0 8 -4 11 -10z m68
-217 c-7 -2 -19 -2 -25 0 -7 3 -2 5 12 5 14 0 19 -2 13 -5z m47 -108 c0 -5 -5
-3 -10 5 -5 8 -10 20 -10 25 0 6 5 3 10 -5 5 -8 10 -19 10 -25z m-30 5 c0 -5
-4 -10 -10 -10 -5 0 -10 5 -10 10 0 6 5 10 10 10 6 0 10 -4 10 -10z m70 -90
c0 -5 -4 -10 -10 -10 -5 0 -10 5 -10 10 0 6 5 10 10 10 6 0 10 -4 10 -10z
m-214 -568 c27 -23 131 -52 224 -62 57 -6 122 -18 145 -25 144 -49 295 -75
431 -75 47 0 83 -3 81 -7 -3 -5 8 -9 24 -10 19 -2 27 2 23 9 -4 6 -1 9 6 6 8
-2 15 -9 17 -14 5 -14 -43 -35 -61 -28 -8 3 -17 0 -22 -7 -5 -9 -2 -10 9 -6
10 3 17 5 17 4 0 -13 -78 -82 -135 -118 -129 -84 -128 -84 -328 -82 -207 1
-230 -15 -36 -24 160 -8 158 -8 198 1 47 11 35 -3 -50 -59 -62 -41 -74 -45
-99 -37 -21 8 -31 7 -42 -4 -8 -8 -26 -15 -39 -16 -13 0 -43 -5 -66 -11 -34
-9 -43 -16 -43 -33 0 -11 -3 -24 -7 -28 -4 -4 -8 -13 -9 -19 0 -7 -2 -20 -2
-29 -1 -11 -11 -18 -24 -19 -16 -1 -11 -4 15 -11 20 -6 37 -16 37 -22 0 -7 9
-23 20 -36 20 -24 27 -46 11 -36 -5 3 -11 -1 -15 -9 -3 -8 -1 -17 4 -20 11 -7
2 -36 -16 -51 -7 -5 -14 -26 -16 -45 -2 -27 -7 -34 -25 -34 -12 0 -25 -4 -29
-8 -10 -9 -26 -9 -21 1 3 4 -29 8 -71 9 -115 2 -138 4 -124 10 6 2 12 15 12
27 0 12 5 27 10 32 7 7 7 19 1 35 -5 13 -10 20 -11 14 -1 -5 -3 -23 -5 -39 -4
-33 -45 -82 -45 -55 0 8 7 24 15 35 16 22 20 48 5 39 -6 -3 -10 5 -10 19 0 14
5 28 10 31 6 3 10 1 10 -5 0 -6 4 -8 10 -5 5 3 8 25 6 48 -2 25 3 51 12 64 13
20 12 23 -2 29 -9 3 -16 10 -16 15 0 4 6 6 14 3 8 -3 17 -1 21 5 3 6 1 11 -4
11 -6 0 -11 5 -11 11 0 6 10 9 23 7 23 -4 24 -2 24 46 0 28 -2 39 -4 24 -2
-16 -8 -28 -12 -28 -13 0 -36 119 -36 182 0 39 -4 59 -13 63 -7 3 -10 10 -7
16 4 5 -1 17 -11 25 -18 14 -17 15 6 8 23 -6 24 -5 7 8 -23 17 -28 85 -8 98
10 6 9 9 -7 14 -14 5 -22 19 -27 48 -5 29 -10 37 -16 27 -6 -10 -9 -8 -9 9 0
15 7 26 20 29 18 5 18 6 3 22 -15 15 -15 16 3 19 10 2 23 8 29 13 11 11 18 11
31 1z m374 -604 c0 -5 -9 -8 -20 -5 -25 6 -26 -8 -2 -23 16 -11 16 -11 0 -6
-13 4 -18 0 -18 -14 0 -22 -3 -23 -49 -14 -61 13 -25 71 45 72 25 1 44 -3 44
-10z m-411 -96 c1 -18 6 -42 11 -52 6 -11 6 -21 1 -24 -11 -7 -44 121 -35 136
10 16 22 -18 23 -60z m366 0 c-3 -7 -5 -18 -5 -23 0 -16 -17 -1 -23 20 -3 15
0 19 14 18 12 -1 17 -7 14 -15z"/>
<path d="M3102 8315 c0 -16 2 -22 5 -12 2 9 2 23 0 30 -3 6 -5 -1 -5 -18z"/>
<path d="M3130 8294 c0 -8 5 -12 10 -9 6 3 10 10 10 16 0 5 -4 9 -10 9 -5 0
-10 -7 -10 -16z"/>
<path d="M2248 7943 c7 -3 16 -2 19 1 4 3 -2 6 -13 5 -11 0 -14 -3 -6 -6z"/>
<path d="M2091 7768 c-1 -10 -5 -18 -11 -18 -5 0 -10 -5 -10 -12 0 -8 6 -7 16
4 9 9 14 22 11 30 -4 9 -6 7 -6 -4z"/>
<path d="M3141 7434 c0 -11 3 -14 6 -6 3 7 2 16 -1 19 -3 4 -6 -2 -5 -13z"/>
<path d="M3210 7250 c0 -6 7 -10 15 -10 8 0 15 2 15 4 0 2 -7 6 -15 10 -8 3
-15 1 -15 -4z"/>
<path d="M2600 7186 c0 -8 4 -17 9 -20 5 -4 7 3 4 14 -6 23 -13 26 -13 6z"/>
<path d="M2680 6840 c0 -5 -6 -10 -14 -10 -29 0 -11 -103 23 -134 21 -19 161
-33 161 -15 0 14 71 3 108 -17 37 -19 99 -17 149 5 30 14 43 16 47 8 3 -9 5
-9 5 1 1 6 14 12 30 12 30 0 61 30 61 57 0 20 -60 16 -103 -7 -48 -26 -120
-26 -161 -1 -25 16 -43 18 -96 14 -36 -2 -87 -4 -113 -4 -47 0 -82 15 -72 32
3 4 -2 12 -11 17 -11 6 -13 11 -5 16 14 9 15 36 1 36 -5 0 -10 -4 -10 -10z"/>
<path d="M3611 6544 c0 -11 3 -14 6 -6 3 7 2 16 -1 19 -3 4 -6 -2 -5 -13z"/>
<path d="M2392 6541 c-11 -7 -11 -9 1 -14 16 -6 27 0 27 15 0 10 -11 10 -28
-1z"/>
<path d="M3450 6530 c0 -11 6 -20 13 -20 7 0 3 -8 -8 -17 -18 -14 -18 -15 -2
-9 10 3 25 6 33 6 9 0 12 5 9 10 -3 6 3 10 14 10 12 0 21 5 21 10 0 6 -11 8
-25 4 -25 -6 -36 10 -12 19 6 3 0 6 -15 6 -22 1 -28 -4 -28 -19z"/>
<path d="M2360 6500 c0 -11 5 -20 10 -20 6 0 10 9 10 20 0 11 -4 20 -10 20 -5
0 -10 -9 -10 -20z"/>
<path d="M2325 6500 c-3 -5 -1 -10 4 -10 6 0 11 5 11 10 0 6 -2 10 -4 10 -3 0
-8 -4 -11 -10z"/>
<path d="M3468 6463 c12 -2 30 -2 40 0 9 3 -1 5 -23 4 -22 0 -30 -2 -17 -4z"/>
<path d="M2045 6440 c-3 -5 -2 -10 4 -10 5 0 13 5 16 10 3 6 2 10 -4 10 -5 0
-13 -4 -16 -10z"/>
<path d="M3590 6434 c0 -8 5 -12 10 -9 6 4 8 11 5 16 -9 14 -15 11 -15 -7z"/>
<path d="M2000 6430 c0 -5 4 -10 9 -10 6 0 13 5 16 10 3 6 -1 10 -9 10 -9 0
-16 -4 -16 -10z"/>
<path d="M3081 6420 c-52 -24 -70 -25 -99 -4 -26 18 -88 13 -133 -10 -15 -7
-52 -14 -84 -14 -37 0 -61 -5 -66 -14 -7 -10 -11 -10 -17 -1 -6 9 -16 10 -38
3 -16 -5 -50 -15 -76 -22 -48 -12 -55 -28 -13 -28 13 0 27 -4 30 -10 3 -5 15
-10 25 -10 11 0 30 -11 44 -25 14 -14 34 -25 46 -25 11 0 20 -4 20 -9 0 -5 11
-12 25 -15 14 -4 25 -11 25 -16 0 -6 9 -10 20 -10 11 0 20 -4 20 -10 0 -5 7
-7 15 -4 8 4 21 2 28 -4 6 -5 29 -12 50 -16 20 -4 37 -11 37 -16 0 -6 7 -10
16 -10 11 0 14 5 10 17 -6 15 -5 15 13 -1 11 -10 25 -15 32 -10 9 5 10 2 6 -9
-3 -8 0 -18 8 -21 7 -2 15 -13 18 -23 2 -10 3 -3 1 14 -1 18 2 36 8 39 7 5 9
2 5 -9 -3 -9 0 -18 9 -21 8 -3 14 -15 14 -27 0 -35 14 -12 16 27 2 24 -2 34
-12 34 -9 0 -12 4 -9 10 10 16 55 7 55 -11 0 -12 6 -16 19 -12 12 3 17 11 14
19 -3 9 2 14 16 14 14 0 19 5 15 15 -4 9 0 15 10 15 9 0 16 5 16 10 0 12 37
50 42 44 3 -2 15 14 27 36 12 22 26 40 32 40 5 0 9 6 9 14 0 7 14 16 31 20 25
5 29 9 20 19 -6 8 -9 16 -6 18 2 3 -27 3 -66 2 -45 -2 -82 2 -105 12 -48 20
-70 19 -123 -5z m-166 -140 c3 -5 2 -10 -4 -10 -5 0 -13 5 -16 10 -3 6 -2 10
4 10 5 0 13 -4 16 -10z m65 -10 c0 -5 -4 -10 -10 -10 -5 0 -10 5 -10 10 0 6 5
10 10 10 6 0 10 -4 10 -10z m30 -86 c0 -8 -5 -12 -10 -9 -6 4 -8 11 -5 16 9
14 15 11 15 -7z"/>
<path d="M2148 6343 c7 -3 16 -2 19 1 4 3 -2 6 -13 5 -11 0 -14 -3 -6 -6z"/>
<path d="M2838 6163 c7 -3 16 -2 19 1 4 3 -2 6 -13 5 -11 0 -14 -3 -6 -6z"/>
<path d="M3130 6110 c0 -5 5 -10 10 -10 6 0 10 5 10 10 0 6 -4 10 -10 10 -5 0
-10 -4 -10 -10z"/>
<path d="M3002 6088 c5 -32 28 -35 28 -4 0 17 -5 26 -16 26 -10 0 -14 -7 -12
-22z"/>
<path d="M2511 5954 c0 -11 3 -14 6 -6 3 7 2 16 -1 19 -3 4 -6 -2 -5 -13z"/>
<path d="M2358 7533 c7 -3 16 -2 19 1 4 3 -2 6 -13 5 -11 0 -14 -3 -6 -6z"/>
<path d="M2210 7526 c0 -2 7 -6 15 -10 8 -3 15 -1 15 4 0 6 -7 10 -15 10 -8 0
-15 -2 -15 -4z"/>
<path d="M2317 7506 c-4 -10 -1 -13 8 -9 8 3 12 9 9 14 -7 12 -11 11 -17 -5z"/>
<path d="M3495 7470 c-3 -5 -2 -10 4 -10 5 0 13 5 16 10 3 6 2 10 -4 10 -5 0
-13 -4 -16 -10z"/>
<path d="M2655 5350 c-10 -11 -15 -28 -12 -40 3 -11 2 -18 -2 -15 -5 2 -8 -9
-7 -25 1 -25 3 -27 12 -15 6 8 17 15 24 15 8 0 11 13 8 40 -3 34 -1 40 15 40
10 0 15 5 12 10 -10 16 -30 12 -50 -10z"/>
<path d="M2615 5320 c3 -5 8 -10 11 -10 2 0 4 5 4 10 0 6 -5 10 -11 10 -5 0
-7 -4 -4 -10z"/>
<path d="M2710 5319 c0 -5 5 -7 10 -4 6 3 10 8 10 11 0 2 -4 4 -10 4 -5 0 -10
-5 -10 -11z"/>
<path d="M2495 5230 c3 -5 8 -10 11 -10 2 0 4 5 4 10 0 6 -5 10 -11 10 -5 0
-7 -4 -4 -10z"/>
<path d="M2475 5190 c3 -5 8 -10 11 -10 2 0 4 5 4 10 0 6 -5 10 -11 10 -5 0
-7 -4 -4 -10z"/>
<path d="M2300 5080 c0 -5 5 -10 10 -10 6 0 10 5 10 10 0 6 -4 10 -10 10 -5 0
-10 -4 -10 -10z"/>
<path d="M4970 3120 c-13 -8 -12 -10 3 -10 9 0 17 5 17 10 0 12 -1 12 -20 0z"/>
<path d="M4856 2775 c4 -8 8 -15 10 -15 2 0 4 7 4 15 0 8 -4 15 -10 15 -5 0
-7 -7 -4 -15z"/>
<path d="M4900 2641 c0 -5 6 -14 14 -20 12 -10 13 -8 9 8 -5 21 -23 30 -23 12z"/>
<path d="M6470 5165 l0 -3535 2340 0 2340 0 0 639 c0 564 -2 640 -15 651 -9 7
-12 16 -7 19 6 3 4 12 -4 19 -12 11 -17 8 -32 -17 -17 -32 -56 -43 -64 -19 -4
10 -10 10 -32 0 -15 -6 -37 -12 -49 -11 -12 0 -16 3 -10 6 7 2 15 4 18 3 10
-2 41 42 49 68 6 19 10 21 22 11 8 -6 14 -18 14 -25 0 -8 7 -14 15 -14 8 0 15
7 15 15 0 15 35 29 61 23 12 -3 14 203 17 1521 1 1077 -1 1528 -9 1535 -6 7
-9 7 -8 1 2 -5 -1 -21 -5 -33 -6 -19 -13 -22 -32 -18 -14 4 -24 2 -24 -4 0 -5
5 -10 11 -10 6 0 9 -6 6 -12 -2 -7 -10 -12 -16 -11 -6 2 -10 0 -10 -5 3 -18
-2 -26 -9 -14 -6 9 -12 5 -23 -15 -14 -28 -76 -93 -88 -93 -3 0 -24 -18 -46
-40 -22 -21 -47 -39 -56 -40 -21 0 -32 -26 -16 -38 18 -14 63 -8 82 11 18 19
35 22 35 7 0 -5 -5 -10 -11 -10 -5 0 -8 -4 -5 -9 5 -8 -4 -47 -22 -91 -3 -8
-6 -39 -6 -69 -1 -34 -6 -56 -13 -58 -8 -3 -13 4 -13 16 0 12 -4 21 -10 21 -5
0 -10 -11 -10 -25 0 -16 -6 -25 -15 -25 -8 0 -15 -5 -15 -12 0 -6 -8 -20 -17
-31 -13 -15 -15 -21 -5 -24 6 -3 12 -10 12 -16 0 -8 -4 -7 -12 1 -20 20 -38
14 -38 -13 0 -16 -6 -25 -16 -25 -9 0 -18 -8 -21 -18 -2 -10 -17 -23 -34 -29
-16 -6 -33 -23 -39 -38 -14 -36 -25 -45 -100 -81 -99 -48 -120 -55 -144 -49
-11 2 -15 2 -8 -1 13 -6 -51 -44 -75 -44 -7 0 -21 -4 -31 -9 -37 -18 -93 -41
-103 -41 -15 0 -39 26 -32 34 4 3 1 6 -7 6 -10 0 -10 3 0 15 8 9 8 15 2 15 -6
0 -13 8 -15 18 -3 12 -5 11 -6 -6 0 -13 -5 -21 -10 -18 -5 3 -7 15 -4 26 3 11
0 20 -6 20 -6 0 -11 9 -11 19 0 20 18 31 51 31 30 0 13 18 -32 37 -21 8 -39
20 -40 27 0 6 -4 2 -8 -9 -7 -19 -8 -18 -21 5 -7 14 -19 31 -27 39 -23 23 -11
46 25 48 17 1 32 -2 32 -7 0 -4 9 -10 19 -13 19 -5 61 29 61 49 0 16 43 49 48
36 10 -30 62 10 55 42 -4 18 -3 19 7 4 13 -21 3 -68 -16 -68 -22 0 -38 -38
-23 -56 8 -10 15 -12 23 -4 7 7 6 14 -2 22 -18 18 -15 25 13 32 14 4 23 11 20
16 -3 5 2 13 11 18 11 6 13 11 5 16 -6 4 -11 14 -11 22 0 11 6 14 23 9 14 -4
18 -3 9 3 -15 10 -5 43 12 41 41 -5 68 2 62 16 -3 8 -1 15 4 15 6 0 10 -5 10
-12 0 -6 7 -3 15 8 14 18 14 18 15 -6 l1 -25 10 23 c5 13 13 20 19 17 5 -3 10
-1 10 5 0 7 -7 9 -16 6 -25 -9 -53 11 -47 34 3 11 0 20 -6 20 -6 0 -11 -5 -11
-10 0 -6 -11 -8 -25 -4 -16 4 -39 -1 -66 -16 -77 -40 -118 -47 -234 -44 -169
6 -212 15 -218 47 -4 22 -4 22 -6 0 0 -13 -6 -23 -12 -23 -6 0 -8 7 -5 16 5
13 2 15 -15 11 -16 -4 -33 5 -68 41 -25 26 -53 60 -61 76 -8 16 -37 52 -65 80
-28 29 -51 61 -52 75 -1 13 -9 31 -17 40 -12 13 -13 20 -4 29 8 8 8 12 1 12
-12 0 -26 37 -23 59 1 8 -3 10 -11 5 -8 -4 -10 -3 -5 5 4 6 2 18 -4 26 -10 12
-9 16 4 21 24 9 19 19 -9 20 -29 2 -57 22 -49 35 3 5 1 9 -5 9 -5 0 -11 -5
-13 -12 -2 -6 -17 5 -33 26 -24 31 -26 39 -14 47 10 6 10 9 2 9 -7 0 -13 9
-13 21 0 16 -4 19 -20 14 -11 -4 -20 -2 -20 4 0 6 7 11 16 11 11 0 14 5 10 16
-3 9 -6 20 -6 25 0 6 -4 7 -10 4 -5 -3 -12 6 -16 20 -3 13 -10 22 -15 19 -12
-7 -11 13 1 36 10 19 4 50 -10 50 -5 0 -5 -10 -2 -22 5 -21 4 -21 -10 -8 -8 9
-18 40 -22 70 -4 37 -3 50 3 40 6 -8 13 -12 16 -8 3 3 -1 12 -9 21 -8 8 -12
17 -9 21 4 3 0 6 -8 6 -16 0 -64 50 -64 66 0 5 4 15 9 23 6 10 5 16 -2 19 -15
5 -16 32 0 32 6 0 4 8 -6 19 -11 12 -14 21 -7 26 6 3 11 0 11 -8 0 -12 11 -11
60 5 59 19 83 48 40 48 -11 0 -19 6 -17 12 1 9 -25 15 -88 19 -69 5 -105 14
-155 36 -76 35 -161 100 -186 142 -10 16 -26 32 -36 34 -10 3 -18 12 -18 21 0
9 -9 34 -19 54 -11 21 -25 67 -31 102 -7 36 -19 75 -26 88 -8 12 -10 22 -4 22
5 0 10 21 10 46 0 47 17 121 31 138 4 5 5 -4 2 -20 -3 -16 -5 -74 -5 -129 0
-120 19 -180 92 -288 62 -92 110 -138 185 -176 67 -35 108 -42 81 -15 -9 8
-14 19 -11 24 3 5 0 12 -6 16 -8 5 -8 9 1 14 16 10 22 63 8 71 -6 4 -7 12 -3
19 6 9 9 9 16 -1 4 -7 11 -10 15 -6 4 4 2 13 -4 19 -17 17 -15 28 4 28 14 0
14 2 3 16 -12 14 -14 14 -25 -1 -8 -10 -14 -12 -19 -6 -3 6 0 14 8 17 34 13
25 94 -10 94 -15 0 -47 66 -38 80 3 6 10 8 14 6 4 -3 14 7 22 22 7 15 15 29
16 31 1 2 8 -1 16 -7 9 -8 25 -8 56 0 37 10 45 9 53 -5 5 -10 16 -17 24 -17 8
0 13 3 11 8 -3 4 28 6 69 5 58 -2 76 0 80 12 4 8 10 12 15 9 5 -3 7 -10 4 -15
-4 -5 5 -9 19 -9 16 0 27 -7 31 -21 6 -17 13 -20 35 -16 15 3 40 2 56 -3 16
-4 21 -9 12 -9 -22 -1 -23 -17 -2 -25 10 -4 26 6 45 26 26 29 29 30 29 12 0
-23 -31 -64 -49 -64 -6 0 -14 -7 -17 -15 -4 -8 -10 -12 -15 -10 -5 3 -11 -7
-14 -22 -23 -106 -37 -149 -50 -159 -18 -14 -20 -44 -2 -44 11 -1 0 -12 -48
-46 -18 -13 -18 -15 -2 -26 19 -14 14 -42 -21 -118 -9 -19 -17 -37 -17 -40 -1
-3 -5 -12 -8 -20 -15 -35 -27 -113 -21 -138 9 -35 22 -52 51 -63 13 -5 23 -17
23 -28 0 -29 29 -91 43 -92 6 -1 -1 -4 -17 -8 -38 -8 -50 -36 -12 -29 14 3 26
1 26 -3 0 -5 -7 -9 -15 -9 -18 0 -20 -20 -2 -21 6 -1 28 0 48 1 22 1 41 -5 48
-14 8 -9 19 -16 26 -16 8 0 23 -12 34 -26 12 -15 21 -23 21 -20 0 4 11 -6 25
-22 14 -17 25 -34 25 -39 0 -13 57 -73 69 -73 6 0 11 -4 11 -10 0 -5 9 -10 21
-10 29 0 59 -18 59 -36 0 -14 2 -13 16 1 9 9 23 14 31 11 18 -7 50 9 87 46 28
26 44 33 74 29 6 -1 12 3 12 8 0 6 13 17 29 26 16 8 32 24 36 35 3 11 12 20
19 20 7 0 22 9 34 20 12 11 28 20 36 20 8 0 19 6 23 13 10 16 110 87 123 87 6
0 10 4 10 9 0 16 33 21 74 11 24 -5 46 -5 55 0 14 8 14 9 -2 10 -10 0 -15 5
-12 10 4 6 12 7 18 4 7 -4 5 1 -4 10 -13 14 -39 18 -125 22 -60 2 -122 6 -139
9 -80 12 -233 7 -283 -9 -38 -13 -56 -15 -71 -7 -11 6 -29 11 -40 11 -11 0
-27 10 -35 22 -14 19 -16 20 -16 5 0 -10 -4 -15 -10 -12 -5 3 -10 21 -10 40 0
27 -4 34 -22 38 -19 4 -18 4 5 6 16 0 26 5 23 9 -3 5 10 16 29 25 34 16 52 56
19 43 -10 -4 -13 -2 -8 6 5 7 2 9 -8 5 -11 -3 -38 17 -82 64 -57 58 -71 68
-96 65 -16 -2 -43 3 -59 12 -60 29 -49 91 23 142 47 32 51 39 61 129 3 30 14
73 24 95 10 23 26 68 36 101 21 73 54 173 65 200 20 47 22 65 7 59 -8 -3 -18
-1 -22 5 -4 7 0 8 11 4 10 -4 15 -2 11 3 -4 6 6 9 24 6 17 -3 29 0 29 7 0 10
-27 15 -67 14 -20 -1 -15 15 7 22 24 7 25 18 6 34 -10 9 -12 20 -6 41 4 16 6
31 3 33 -2 3 -6 31 -8 62 -2 31 -9 63 -16 71 -6 8 -9 17 -6 20 8 9 -31 44 -49
44 -11 0 -14 5 -10 16 5 12 2 15 -12 12 -10 -3 -27 1 -38 10 -17 13 -17 14 -1
8 11 -3 16 -2 12 4 -3 6 -13 10 -20 10 -8 0 -19 9 -25 20 -6 11 -20 20 -31 20
-11 0 -30 7 -42 15 -20 13 -155 32 -227 32 -25 0 -110 -19 -141 -32 -17 -7
-20 19 -4 44 6 11 4 13 -8 8 -10 -4 -24 -10 -32 -13 -8 -3 -15 -1 -15 5 0 6 7
11 16 11 8 0 12 5 9 10 -3 6 2 10 12 10 13 0 14 3 5 8 -9 7 -10 16 -1 40 6 18
8 44 5 57 -5 18 -2 25 9 25 8 0 15 5 15 10 0 6 -4 10 -9 10 -5 0 -12 7 -15 16
-4 12 -1 14 14 9 11 -4 20 -2 20 3 0 6 -5 12 -12 14 -8 3 -2 15 15 33 17 19
23 33 17 39 -17 17 -11 32 18 43 18 8 20 11 7 10 -21 -2 -28 20 -12 41 6 8 5
17 -3 27 -10 12 -9 15 5 15 17 0 17 1 2 18 -21 23 -21 29 -3 48 19 18 26 18
26 -1 0 -8 5 -15 10 -15 15 0 12 17 -7 35 -16 16 -16 18 0 27 10 5 15 13 12
19 -4 5 1 17 11 26 15 16 15 17 -7 25 -19 7 -21 11 -9 18 8 5 23 10 32 10 12
0 15 5 11 17 -5 12 -3 14 8 9 8 -4 5 0 -5 8 -18 14 -164 16 -1453 16 l-1433 0
0 -3535z m892 3321 c3 3 24 -13 47 -35 23 -22 41 -35 41 -28 0 7 8 0 17 -15
17 -27 52 -48 79 -48 8 0 17 -7 20 -15 4 -8 10 -15 16 -15 5 0 24 -10 41 -23
18 -12 41 -27 52 -34 11 -7 46 -28 78 -47 32 -20 64 -36 70 -36 7 0 35 -13 62
-28 36 -20 49 -33 47 -46 -4 -20 -25 -46 -39 -46 -4 -1 -24 -21 -43 -47 -19
-25 -44 -56 -55 -68 -12 -13 -32 -38 -45 -56 -14 -18 -32 -39 -41 -48 -8 -9
-25 -30 -38 -48 -19 -27 -20 -35 -9 -53 15 -24 28 -26 28 -5 0 8 9 15 19 15
11 0 23 5 26 11 4 6 13 8 21 5 8 -3 11 0 8 9 -3 7 8 26 25 41 17 15 31 33 31
41 0 7 4 13 9 13 5 0 13 9 16 20 8 24 131 153 162 169 31 16 60 14 81 -6 9
-10 26 -18 37 -18 11 0 20 -6 19 -12 -3 -44 -4 -45 -25 -40 -17 5 -20 2 -16
-13 3 -14 -2 -20 -22 -25 -14 -4 -33 -13 -43 -22 -9 -8 -22 -15 -30 -17 -22
-3 -39 -17 -33 -27 4 -5 -1 -9 -10 -9 -8 0 -20 -11 -25 -24 -12 -32 -46 -51
-64 -37 -10 9 -16 4 -26 -19 -7 -16 -18 -30 -25 -30 -7 0 -15 -8 -19 -17 -3
-10 -9 -24 -12 -32 -4 -8 -2 -11 3 -8 6 4 8 -4 4 -21 -5 -25 -6 -25 -9 -4 -2
12 -8 22 -14 22 -6 0 -8 -12 -4 -30 6 -32 1 -36 -24 -20 -10 6 -11 10 -2 10 6
0 12 5 12 10 0 6 -9 10 -20 10 -15 0 -20 -7 -20 -26 0 -14 -9 -38 -19 -53 -22
-30 -35 -118 -19 -128 7 -4 9 3 4 21 -4 15 -2 26 4 26 5 0 10 -7 10 -16 0 -10
6 -14 14 -11 7 3 19 0 25 -6 8 -8 11 -3 11 18 0 21 3 26 9 16 7 -11 10 -10 14
5 4 16 5 16 6 -3 2 -34 14 -28 33 16 14 31 21 38 38 34 26 -7 25 -16 -2 -28
-13 -6 -27 -20 -33 -32 -5 -12 -16 -24 -25 -27 -11 -3 -9 -6 8 -11 12 -4 22
-14 22 -21 0 -8 5 -14 12 -14 6 0 31 -9 55 -21 39 -19 43 -24 40 -55 -1 -22
-6 -33 -14 -30 -9 4 -10 -2 -2 -22 12 -31 3 -92 -13 -92 -5 0 -8 -7 -5 -15 4
-8 1 -17 -5 -21 -7 -4 -6 -9 3 -15 9 -5 10 -9 3 -9 -8 0 -11 -21 -9 -65 2 -36
-1 -67 -6 -70 -5 -4 -9 -16 -9 -27 0 -28 -22 -88 -32 -88 -4 0 -8 -4 -8 -10 0
-5 -13 -23 -30 -40 -16 -17 -30 -34 -30 -39 0 -10 -76 -36 -101 -34 -12 1 -19
-5 -19 -17 0 -10 -14 -32 -30 -49 -26 -25 -35 -29 -55 -21 -25 10 -34 43 -26
108 2 23 8 32 20 30 9 -2 15 3 13 10 -1 7 -5 44 -8 82 -4 64 -3 69 13 64 15
-5 16 -4 3 5 -14 10 -20 32 -21 74 0 9 -7 17 -15 17 -18 0 -15 31 6 47 13 11
11 12 -9 13 -20 0 -22 3 -13 12 16 16 15 29 0 25 -7 -1 -14 7 -16 18 -3 24
-60 63 -103 72 -17 3 -33 11 -36 18 -2 7 -13 10 -25 7 -11 -2 -23 0 -27 6 -5
8 -17 9 -41 2 -23 -7 -36 -6 -41 1 -4 7 -8 5 -12 -5 -4 -10 -15 -13 -31 -10
-14 2 -28 0 -31 -6 -8 -12 -45 -13 -45 -1 0 5 16 12 35 15 24 5 32 11 29 21
-3 7 -12 11 -20 8 -8 -3 -21 -2 -31 1 -14 6 -14 8 3 21 10 8 17 15 14 15 -31
7 -41 7 -46 -1 -3 -5 -16 -6 -29 -3 -16 4 -33 -2 -53 -16 -17 -13 -37 -20 -45
-17 -8 3 -23 -3 -32 -14 -12 -12 -26 -17 -39 -13 -13 3 -32 -3 -46 -14 -14
-11 -40 -23 -57 -26 -20 -5 -33 -14 -33 -23 0 -12 -6 -14 -27 -8 -16 4 -24 3
-20 -1 9 -9 -62 -46 -74 -38 -15 9 -10 24 9 25 10 0 12 3 5 6 -7 2 -13 20 -13
39 0 21 -4 33 -10 29 -6 -3 -17 1 -26 9 -8 9 -11 16 -5 16 6 0 11 9 11 19 0
11 6 22 13 24 7 3 6 6 -5 6 -12 1 -16 10 -16 32 1 31 2 31 42 25 41 -7 41 -7
20 12 -14 13 -30 18 -52 14 -26 -3 -32 -1 -32 14 0 13 3 15 11 7 6 -6 18 -9
25 -6 24 9 16 23 -13 24 -17 1 -21 3 -10 6 21 5 23 23 2 23 -24 0 -17 20 8 21
12 0 16 3 10 6 -21 8 -16 43 6 43 11 0 23 5 27 12 5 8 0 9 -17 5 -13 -4 -30
-7 -36 -7 -7 0 -13 -10 -13 -22 -1 -21 -2 -21 -11 -5 -6 10 -16 14 -22 10 -7
-3 -4 3 6 14 14 16 15 26 8 46 -5 13 -16 27 -23 30 -10 3 -10 7 -1 17 8 9 12
7 18 -9 7 -24 25 -28 25 -6 0 9 -7 18 -15 21 -16 7 -10 54 9 66 6 4 7 11 2 15
-4 4 -14 -1 -22 -11 -12 -17 -14 -17 -14 -3 0 9 8 21 18 26 13 8 14 10 2 11
-24 0 -23 64 1 115 17 36 19 48 9 60 -16 19 -6 32 32 40 28 7 30 9 15 20 -23
16 -22 28 2 16 20 -11 91 -3 91 10 0 13 -34 11 -47 -2 -8 -8 -17 -7 -35 6 -15
12 -17 15 -5 11 12 -4 20 1 26 18 8 18 15 22 39 18 28 -4 51 12 37 26 -3 3
-10 0 -14 -7 -6 -9 -18 -11 -37 -7 -20 5 -24 10 -14 16 7 4 19 6 27 3 8 -3 13
2 13 15 0 18 6 20 75 19 42 0 78 -4 81 -8 8 -13 94 6 94 21 0 5 7 6 17 3 10
-4 14 -2 9 5 -4 6 3 12 16 14 15 2 24 11 26 26 3 23 35 31 47 12 3 -5 -3 -10
-14 -10 -12 0 -21 -3 -21 -8 0 -4 18 -6 39 -4 36 4 39 6 28 23 -6 10 -14 19
-18 19 -3 0 -3 14 -1 31 5 31 5 31 53 25 31 -4 49 -3 49 4 0 5 10 10 23 10 33
0 35 42 3 60 -47 25 -37 71 15 70 13 -1 42 3 64 8 22 5 45 5 51 0 6 -4 13 -5
16 -2z m1872 -151 c3 -8 1 -15 -4 -15 -6 0 -10 7 -10 15 0 8 2 15 4 15 2 0 6
-7 10 -15z m-2159 -18 c0 -26 -20 -25 -23 2 -3 16 1 22 10 19 7 -3 13 -12 13
-21z m-379 -122 c-4 -24 -16 -30 -16 -7 0 12 4 22 9 22 5 0 8 -7 7 -15z m2488
-220 c-4 -8 -10 -12 -15 -9 -11 6 -2 24 11 24 5 0 7 -7 4 -15z m234 -187 c-2
-26 -8 -32 -30 -35 -16 -2 -28 1 -28 6 0 6 -11 6 -30 1 -25 -7 -32 -5 -41 12
-10 19 -9 20 14 14 17 -4 27 -1 30 8 8 21 47 16 47 -6 0 -10 5 -18 10 -18 6 0
10 11 10 25 0 14 5 25 11 25 6 0 9 -14 7 -32z m-1379 -10 c10 3 13 -1 9 -16
-3 -12 -1 -23 6 -25 6 -2 8 -8 4 -11 -3 -4 -16 2 -27 13 -12 12 -25 21 -31 21
-5 0 -10 7 -10 15 0 12 5 13 18 7 9 -5 23 -7 31 -4z m1431 -13 c0 -8 -9 -13
-20 -12 -23 1 -25 8 -8 25 13 13 28 7 28 -13z m40 1 c0 -3 -4 -8 -10 -11 -5
-3 -10 -1 -10 4 0 6 5 11 10 11 6 0 10 -2 10 -4z m-2956 -41 c-7 -16 -24 -21
-24 -6 0 8 7 13 27 20 1 1 0 -6 -3 -14z m2826 -69 c0 -3 -4 -8 -10 -11 -5 -3
-10 -1 -10 4 0 6 5 11 10 11 6 0 10 -2 10 -4z m95 -5 c8 -14 -28 -31 -62 -31
-24 1 -25 2 -10 11 9 6 15 14 12 20 -4 5 7 9 24 9 16 0 32 -4 36 -9z m-1600
-53 c5 -4 0 -8 -12 -8 -27 0 -36 14 -27 43 l7 22 11 -25 c6 -14 15 -28 21 -32z
m1750 42 c3 -5 1 -10 -4 -10 -6 0 -11 5 -11 10 0 6 2 10 4 10 3 0 8 -4 11 -10z
m-15 -51 c0 -6 -4 -7 -10 -4 -5 3 -10 11 -10 16 0 6 5 7 10 4 6 -3 10 -11 10
-16z m-150 -29 c-27 -18 -41 -11 -23 10 12 14 20 17 28 9 7 -7 5 -13 -5 -19z
m110 -14 c8 -6 16 -20 18 -31 2 -17 -4 -21 -31 -23 -34 -2 -34 -2 -33 37 1 40
9 43 46 17z m-885 4 c3 -5 -3 -10 -14 -10 -12 0 -21 -7 -21 -15 0 -17 -16 -20
-25 -6 -7 12 22 41 40 41 8 0 17 -4 20 -10z m935 -20 c0 -5 -2 -10 -4 -10 -3
0 -8 5 -11 10 -3 6 -1 10 4 10 6 0 11 -4 11 -10z m-775 -57 c3 -9 2 -20 -3
-25 -4 -4 -13 5 -19 21 -8 24 -8 28 2 24 8 -2 16 -12 20 -20z m460 9 c-3 -3
-11 0 -18 7 -9 10 -8 11 6 5 10 -3 15 -9 12 -12z m-205 -37 c0 -14 -4 -25 -10
-25 -11 0 -14 33 -3 43 11 11 13 8 13 -18z m-1175 -5 c3 -5 1 -10 -4 -10 -6 0
-11 5 -11 10 0 6 2 10 4 10 3 0 8 -4 11 -10z m1549 -39 c3 -5 -1 -11 -9 -15
-9 -3 -15 0 -15 9 0 16 16 20 24 6z m-274 -61 c0 -5 -2 -10 -4 -10 -3 0 -8 5
-11 10 -3 6 -1 10 4 10 6 0 11 -4 11 -10z m374 -15 c-4 -8 -8 -15 -10 -15 -2
0 -4 7 -4 15 0 8 4 15 10 15 5 0 7 -7 4 -15z m-49 -5 c-3 -5 2 -10 12 -10 15
0 16 -2 3 -10 -9 -6 -17 -5 -22 3 -11 17 -10 27 3 27 5 0 7 -4 4 -10z m-2448
-56 c-3 -3 -12 -4 -19 -1 -8 3 -5 6 6 6 11 1 17 -2 13 -5z m-27 -18 c0 -3 -4
-8 -10 -11 -5 -3 -10 -1 -10 4 0 6 5 11 10 11 6 0 10 -2 10 -4z m-42 -28 c-2
-14 -18 -29 -45 -42 -25 -13 -40 -26 -38 -34 3 -7 1 -10 -4 -7 -5 3 -12 1 -16
-5 -4 -6 -11 -8 -16 -5 -5 4 -10 -4 -10 -17 -1 -17 -3 -18 -6 -5 -2 9 -9 17
-15 17 -6 0 -8 -9 -5 -20 5 -19 2 -22 -25 -24 -7 -1 -16 -5 -20 -11 -5 -6 -8
-5 -8 3 0 6 -4 12 -10 12 -5 0 -7 -7 -4 -15 12 -30 -17 -14 -31 17 -16 39 -10
52 35 77 19 10 56 30 81 44 46 25 72 33 117 36 19 1 23 -3 20 -21z m370 -22
c35 -38 41 -61 16 -70 -10 -4 -18 0 -21 13 -2 10 -17 25 -31 32 -55 28 -55 46
-2 58 3 0 20 -14 38 -33z m-201 18 c-3 -3 -12 -4 -19 -1 -8 3 -5 6 6 6 11 1
17 -2 13 -5z m57 -43 c51 -12 62 -24 40 -45 -24 -24 -11 -30 25 -11 17 9 39
14 49 13 22 -4 35 -57 19 -77 -10 -12 -7 -13 17 -7 26 6 28 5 24 -18 -4 -22
-3 -24 13 -15 13 7 19 6 19 -1 0 -6 10 -8 26 -4 20 5 25 3 22 -7 -3 -8 -11
-14 -18 -14 -7 0 -15 -5 -17 -11 -2 -6 7 -10 19 -10 23 1 23 0 23 -145 0 -130
2 -149 19 -168 11 -12 30 -21 44 -21 14 0 22 -3 19 -7 -4 -3 1 -12 11 -20 16
-13 16 -13 -3 -11 -12 2 -20 -3 -21 -12 0 -8 -2 -23 -2 -33 -2 -14 -7 -17 -24
-11 -20 6 -21 5 -9 -10 12 -14 11 -19 -4 -36 -15 -16 -16 -22 -5 -35 7 -9 10
-19 6 -23 -4 -4 -13 1 -21 11 -11 16 -13 15 -19 -15 -4 -18 -8 -52 -11 -75 -2
-23 -9 -52 -15 -63 -9 -18 -8 -26 7 -42 13 -15 15 -22 6 -25 -7 -3 -13 -10
-13 -17 0 -7 -11 -25 -25 -40 -18 -19 -25 -23 -25 -11 0 11 -6 14 -24 9 -27
-6 -44 11 -20 20 14 5 11 12 -17 38 -18 17 -40 32 -48 33 -26 3 -56 18 -64 32
-4 7 -13 13 -20 13 -7 0 -6 -4 3 -10 8 -5 10 -10 4 -10 -5 0 -15 5 -22 12 -7
7 -12 9 -12 5 0 -4 -8 -3 -19 2 -10 6 -35 11 -55 13 -20 1 -36 6 -36 10 0 4
-15 18 -33 30 -20 13 -32 29 -29 37 3 10 0 12 -11 8 -11 -4 -21 1 -27 14 -6
11 -15 17 -21 14 -5 -4 -9 3 -9 14 0 10 6 22 13 25 6 3 1 3 -12 0 -16 -4 -21
-3 -16 6 4 6 -1 17 -11 24 -9 7 -19 24 -21 37 -2 13 -7 26 -12 29 -4 3 -13 20
-19 39 -9 26 -9 36 -1 42 6 4 9 11 6 16 -3 5 3 17 14 26 20 18 24 35 11 53 -8
13 -74 15 -66 2 7 -10 6 -10 -41 7 -26 9 -33 14 -18 15 16 0 20 5 16 20 -4 16
0 20 17 20 14 0 20 -5 17 -12 -3 -9 7 -13 29 -14 18 0 31 3 28 8 -3 4 4 8 15
8 11 0 23 5 27 11 3 6 24 9 48 7 54 -6 91 28 83 77 -5 29 -2 33 29 44 29 10
33 15 23 27 -9 11 -8 14 4 14 24 0 39 24 24 39 -10 11 -7 12 12 6 17 -5 21 -4
16 5 -5 7 3 21 19 34 27 21 27 21 11 59 -8 21 -22 40 -30 43 -19 8 -9 24 13
24 9 0 34 -5 56 -9z m166 -71 c0 -5 -4 -10 -10 -10 -5 0 -10 5 -10 10 0 6 5
10 10 10 6 0 10 -4 10 -10z m10 -30 c0 -5 -4 -10 -10 -10 -5 0 -10 5 -10 10 0
6 5 10 10 10 6 0 10 -4 10 -10z m-379 -83 c-5 -5 -19 -7 -32 -5 -28 4 -36 31
-18 64 l12 24 23 -38 c13 -20 19 -41 15 -45z m414 63 c3 -5 1 -10 -4 -10 -6 0
-11 5 -11 10 0 6 2 10 4 10 3 0 8 -4 11 -10z m35 -20 c0 -5 -4 -10 -10 -10 -5
0 -10 5 -10 10 0 6 5 10 10 10 6 0 10 -4 10 -10z m1630 -65 c0 -8 -4 -15 -10
-15 -5 0 -10 7 -10 15 0 8 5 15 10 15 6 0 10 -7 10 -15z m450 0 c-7 -8 -17
-15 -23 -15 -6 0 -2 7 9 15 25 19 30 19 14 0z m-2485 -25 c-3 -5 -11 -10 -16
-10 -6 0 -7 5 -4 10 3 6 11 10 16 10 6 0 7 -4 4 -10z m-295 -150 c0 -11 -4
-20 -10 -20 -5 0 -10 9 -10 20 0 11 5 20 10 20 6 0 10 -9 10 -20z m2471 -10
c9 13 10 13 6 0 -2 -8 -16 -16 -31 -18 -24 -3 -26 -2 -15 11 10 11 16 12 22 3
5 -8 10 -7 18 4z m-61 -90 c0 -5 -4 -10 -10 -10 -5 0 -10 5 -10 10 0 6 5 10
10 10 6 0 10 -4 10 -10z m573 -175 c42 -17 58 -60 30 -80 -10 -7 -21 -11 -26
-8 -4 2 -15 -1 -23 -8 -13 -10 -17 -10 -24 2 -8 11 -13 12 -30 1 -17 -10 -20
-10 -20 3 0 8 4 15 8 15 4 0 8 9 9 20 1 15 31 68 39 70 1 0 17 -7 37 -15z
m-203 -49 c0 -3 -4 -8 -10 -11 -5 -3 -10 -1 -10 4 0 6 5 11 10 11 6 0 10 -2
10 -4z m-1990 -37 c-7 -11 -14 -18 -17 -15 -8 8 5 36 17 36 7 0 7 -6 0 -21z
m2696 -104 c-22 -17 -46 -20 -46 -6 0 11 18 19 45 20 20 0 20 0 1 -14z m-71
-25 c3 -5 2 -10 -4 -10 -5 0 -13 5 -16 10 -3 6 -2 10 4 10 5 0 13 -4 16 -10z
m-300 -10 c3 -5 -1 -10 -10 -10 -9 0 -13 5 -10 10 3 6 8 10 10 10 2 0 7 -4 10
-10z m248 -30 c-8 -32 -33 -24 -33 10 0 27 2 29 19 20 13 -6 17 -17 14 -30z
m-43 -10 c0 -5 -4 -10 -10 -10 -5 0 -10 5 -10 10 0 6 5 10 10 10 6 0 10 -4 10
-10z m-2620 -94 c0 -3 -4 -8 -10 -11 -5 -3 -10 -1 -10 4 0 6 5 11 10 11 6 0
10 -2 10 -4z m1970 -56 c0 -5 -4 -10 -10 -10 -5 0 -10 5 -10 10 0 6 5 10 10
10 6 0 10 -4 10 -10z m47 -16 c-3 -3 -12 -4 -19 -1 -8 3 -5 6 6 6 11 1 17 -2
13 -5z m463 -14 c0 -5 -4 -10 -10 -10 -5 0 -10 5 -10 10 0 6 5 10 10 10 6 0
10 -4 10 -10z m910 -590 c0 -5 -5 -10 -11 -10 -5 0 -7 -5 -4 -10 6 -10 -17
-40 -30 -40 -11 0 5 54 18 62 17 11 27 10 27 -2z m-840 -30 c11 -7 12 -12 4
-20 -8 -8 -14 -8 -18 -1 -4 5 -14 7 -23 4 -15 -6 -16 -5 -3 10 18 19 20 20 40
7z m50 -25 c0 -8 -4 -15 -10 -15 -5 0 -7 7 -4 15 4 8 8 15 10 15 2 0 4 -7 4
-15z m70 -21 c0 -8 -5 -12 -10 -9 -6 4 -8 11 -5 16 9 14 15 11 15 -7z m-40
-38 c-14 -14 -24 0 -16 21 6 15 8 15 16 3 6 -9 5 -19 0 -24z m676 -3 c-10 -10
-19 5 -10 18 6 11 8 11 12 0 2 -7 1 -15 -2 -18z m-30 -30 c-10 -10 -19 5 -10
18 6 11 8 11 12 0 2 -7 1 -15 -2 -18z m-393 -313 c6 -39 18 -60 33 -60 21 0
17 -21 -6 -27 -11 -3 -20 -9 -20 -14 0 -5 -7 -9 -15 -9 -9 0 -34 -9 -56 -20
-35 -18 -41 -19 -54 -6 -8 8 -15 17 -15 20 0 4 -11 24 -25 47 -25 38 -26 59
-3 59 7 0 7 -4 -1 -13 -13 -16 -3 -31 13 -18 11 10 16 11 40 11 8 0 18 9 21
21 5 16 10 18 21 8 11 -9 14 -9 14 1 0 7 6 10 14 7 8 -3 17 1 20 10 8 20 14
15 19 -17z m59 -137 c2 -10 1 -33 -3 -50 -6 -27 -2 -37 18 -57 16 -17 20 -26
12 -31 -8 -6 -8 -10 2 -16 7 -4 11 -11 7 -14 -6 -6 -89 24 -98 35 -3 4 -19 13
-37 20 -32 14 -61 58 -46 69 22 19 84 32 100 22 13 -7 14 -10 4 -11 -8 0 -12
-3 -9 -6 4 -3 16 0 28 6 20 11 20 23 -1 26 -22 3 -23 5 -9 14 21 14 28 12 32
-7z m-89 -174 c15 -17 24 -35 21 -40 -9 -15 -44 -10 -44 7 0 8 -3 13 -7 11 -5
-3 -8 8 -9 24 -1 37 5 36 39 -2z m592 -1345 c-9 -9 -21 -28 -26 -42 -11 -28
-14 -176 -4 -192 3 -5 2 -10 -3 -10 -20 0 -31 183 -12 195 6 4 8 10 5 15 -3 5
7 20 22 34 30 28 46 28 18 0z m55 16 c0 -5 -2 -10 -4 -10 -3 0 -8 5 -11 10 -3
6 -1 10 4 10 6 0 11 -4 11 -10z m-1028 -175 c71 -34 120 -71 137 -103 8 -15
22 -38 32 -51 18 -23 26 -61 12 -61 -3 0 -15 7 -25 17 -10 9 -20 14 -22 12 -2
-2 -6 -35 -9 -74 -3 -38 -9 -87 -13 -108 -6 -34 -3 -42 24 -70 62 -64 60 -117
-3 -117 -25 0 -48 11 -87 43 -49 40 -137 142 -138 160 0 4 -9 18 -20 30 -15
15 -19 29 -15 47 6 23 5 24 -8 6 -10 -14 -18 -16 -32 -9 -12 7 -14 13 -6 17 6
4 11 1 11 -6 0 -7 5 -5 11 6 7 12 8 21 2 25 -6 3 -14 17 -18 31 -7 21 -6 23 7
13 8 -7 17 -11 20 -8 2 3 14 -17 26 -43 19 -41 31 -53 94 -87 40 -22 78 -41
84 -43 15 -4 24 55 24 165 0 105 -8 129 -53 161 -19 13 -26 22 -17 23 22 1
-51 27 -78 28 -13 1 -20 5 -17 11 9 15 19 13 77 -15z m-152 -159 c0 -3 -4 -8
-10 -11 -5 -3 -10 -1 -10 4 0 6 5 11 10 11 6 0 10 -2 10 -4z m974 -82 c10 -26
7 -79 -6 -92 -21 -21 -57 -13 -95 23 -20 19 -41 31 -45 27 -4 -4 -18 -29 -32
-56 -25 -50 -25 -67 3 -101 95 -114 124 -221 78 -279 -21 -26 -27 -28 -53 -19
-21 7 -37 24 -58 68 -27 53 -30 66 -29 159 1 92 -1 104 -23 133 -13 17 -24 39
-24 49 0 16 1 16 20 -1 11 -10 17 -21 15 -25 -3 -5 3 -6 12 -3 10 3 30 28 44
56 35 69 65 74 118 23 21 -20 40 -33 44 -30 4 4 4 24 1 46 -5 30 -3 38 9 38 8
0 18 -7 21 -16z m-566 -70 c12 -8 22 -20 22 -27 0 -6 12 -21 28 -34 21 -17 23
-22 10 -23 -9 0 -28 -12 -42 -27 l-25 -26 1 29 c1 38 -12 96 -24 112 -14 17 3
15 30 -4z m452 -150 c0 -17 -22 -14 -28 4 -2 7 3 12 12 12 9 0 16 -7 16 -16z
m53 -49 c8 -18 -11 -31 -25 -17 -11 11 -3 32 12 32 4 0 10 -7 13 -15z m-213
-35 c0 -5 -7 -10 -15 -10 -8 0 -15 5 -15 10 0 6 7 10 15 10 8 0 15 -4 15 -10z
m250 -40 c0 -5 -4 -10 -10 -10 -5 0 -10 5 -10 10 0 6 5 10 10 10 6 0 10 -4 10
-10z m-245 -30 c3 -5 1 -10 -4 -10 -6 0 -11 5 -11 10 0 6 2 10 4 10 3 0 8 -4
11 -10z m230 -110 c3 -5 1 -10 -4 -10 -6 0 -11 5 -11 10 0 6 2 10 4 10 3 0 8
-4 11 -10z m-138 -36 c-9 -9 -28 6 -21 18 4 6 10 6 17 -1 6 -6 8 -13 4 -17z
m83 -20 c0 -8 -4 -12 -10 -9 -5 3 -10 10 -10 16 0 5 5 9 10 9 6 0 10 -7 10
-16z"/>
<path d="M7248 8333 c7 -3 16 -2 19 1 4 3 -2 6 -13 5 -11 0 -14 -3 -6 -6z"/>
<path d="M7195 8320 c-3 -6 1 -7 9 -4 18 7 21 14 7 14 -6 0 -13 -4 -16 -10z"/>
<path d="M7258 8303 c6 -2 18 -2 25 0 6 3 1 5 -13 5 -14 0 -19 -2 -12 -5z"/>
<path d="M7122 8283 c-6 -2 -10 -9 -6 -14 8 -14 21 -11 28 6 6 15 1 17 -22 8z"/>
<path d="M7080 8210 c19 -13 30 -13 30 0 0 6 -10 10 -22 10 -19 0 -20 -2 -8
-10z"/>
<path d="M7120 8210 c0 -5 7 -10 16 -10 8 0 12 5 9 10 -3 6 -10 10 -16 10 -5
0 -9 -4 -9 -10z"/>
<path d="M7020 8164 c0 -8 6 -11 15 -8 8 4 15 9 15 13 0 4 -7 8 -15 8 -8 0
-15 -6 -15 -13z"/>
<path d="M6760 8145 c0 -8 5 -15 10 -15 6 0 10 7 10 15 0 8 -4 15 -10 15 -5 0
-10 -7 -10 -15z"/>
<path d="M6745 8110 c3 -5 8 -10 11 -10 2 0 4 5 4 10 0 6 -5 10 -11 10 -5 0
-7 -4 -4 -10z"/>
<path d="M6680 8100 c0 -5 9 -10 20 -10 11 0 20 5 20 10 0 6 -9 10 -20 10 -11
0 -20 -4 -20 -10z"/>
<path d="M6680 8040 c0 -5 5 -10 10 -10 6 0 10 5 10 10 0 6 -4 10 -10 10 -5 0
-10 -4 -10 -10z"/>
<path d="M7460 8014 c0 -8 5 -12 10 -9 6 3 10 10 10 16 0 5 -4 9 -10 9 -5 0
-10 -7 -10 -16z"/>
<path d="M7460 7980 c0 -5 5 -10 11 -10 5 0 7 5 4 10 -3 6 -8 10 -11 10 -2 0
-4 -4 -4 -10z"/>
<path d="M7490 7927 c0 -7 7 -22 15 -33 16 -24 11 -34 -17 -34 -16 0 -16 -3
-6 -20 7 -11 18 -20 25 -20 7 0 13 -7 13 -15 0 -18 -12 -19 -28 -3 -9 9 -12 8
-12 -4 0 -9 -6 -19 -12 -22 -7 -2 -2 -4 12 -3 20 2 26 -3 28 -25 3 -23 -1 -28
-17 -28 -31 0 -29 -33 1 -35 24 -2 36 -15 15 -15 -14 0 -16 -8 -13 -42 7 -67
18 -108 27 -102 15 9 10 -8 -8 -29 -17 -19 -17 -20 4 -8 12 6 27 19 33 29 8
12 13 13 16 5 10 -23 24 -14 25 15 l1 27 8 -25 c8 -22 8 -21 7 10 0 20 2 41 6
47 4 6 3 14 -3 18 -6 4 -8 11 -4 16 12 20 11 79 -2 104 -8 15 -14 36 -14 46 0
11 -4 19 -9 19 -5 0 -8 8 -7 17 0 10 -5 18 -11 19 -34 4 -36 7 -13 14 25 8 25
8 3 15 -12 4 -29 22 -38 41 -17 36 -25 43 -25 21z m50 -171 c0 -3 -4 -8 -10
-11 -5 -3 -10 -1 -10 4 0 6 5 11 10 11 6 0 10 -2 10 -4z"/>
<path d="M7818 7793 c7 -3 16 -2 19 1 4 3 -2 6 -13 5 -11 0 -14 -3 -6 -6z"/>
<path d="M7770 7750 c0 -5 5 -10 11 -10 5 0 7 5 4 10 -3 6 -8 10 -11 10 -2 0
-4 -4 -4 -10z"/>
<path d="M7465 7740 c-3 -5 1 -10 10 -10 9 0 13 5 10 10 -3 6 -8 10 -10 10 -2
0 -7 -4 -10 -10z"/>
<path d="M7745 7721 c-3 -5 -1 -12 5 -16 5 -3 10 1 10 9 0 18 -6 21 -15 7z"/>
<path d="M7855 7419 c-10 -15 3 -25 16 -12 7 7 7 13 1 17 -6 3 -14 1 -17 -5z"/>
<path d="M6630 7410 c0 -5 5 -10 10 -10 6 0 10 5 10 10 0 6 -4 10 -10 10 -5 0
-10 -4 -10 -10z"/>
<path d="M7160 7370 c0 -5 5 -10 10 -10 6 0 10 5 10 10 0 6 -4 10 -10 10 -5 0
-10 -4 -10 -10z"/>
<path d="M7294 7032 c-6 -4 -13 -15 -17 -24 -4 -12 -2 -15 9 -11 8 3 12 8 10
11 -3 3 -1 11 5 19 13 14 10 17 -7 5z"/>
<path d="M7358 7013 c7 -3 16 -2 19 1 4 3 -2 6 -13 5 -11 0 -14 -3 -6 -6z"/>
<path d="M7210 6984 c0 -8 -4 -12 -10 -9 -5 3 -10 -1 -10 -9 0 -10 -9 -16 -25
-16 -14 0 -25 -3 -25 -8 0 -4 -13 -13 -29 -20 -21 -9 -28 -19 -27 -40 1 -18 7
-28 20 -30 16 -3 18 0 12 22 -7 30 0 34 54 39 27 2 35 7 35 22 0 15 7 20 28
20 32 -1 34 6 9 28 -23 21 -32 21 -32 1z"/>
<path d="M6925 6781 c-3 -5 -1 -12 5 -16 5 -3 10 -2 10 4 0 5 10 12 23 14 19
4 19 4 -5 6 -15 0 -29 -3 -33 -8z"/>
<path d="M6920 6540 c0 -5 5 -10 10 -10 6 0 10 5 10 10 0 6 -4 10 -10 10 -5 0
-10 -4 -10 -10z"/>
<path d="M10330 4940 c-20 -12 -10 -19 14 -10 11 3 15 9 10 13 -6 3 -16 2 -24
-3z"/>
<path d="M10382 4784 c4 -21 22 -23 26 -1 2 10 -3 17 -13 17 -10 0 -15 -6 -13
-16z"/>
<path d="M9930 2830 c0 -24 135 -150 162 -150 14 0 9 21 -13 51 -13 19 -29 29
-45 29 -14 0 -27 7 -31 18 -6 18 -52 61 -65 62 -5 0 -8 -4 -8 -10z"/>
<path d="M10571 2669 c3 -76 38 -159 69 -159 33 0 26 62 -16 147 -20 40 -41
73 -46 73 -5 0 -8 -27 -7 -61z"/>
<path d="M10840 8686 c0 -8 7 -17 16 -20 12 -5 14 -14 9 -38 -4 -18 -11 -37
-16 -42 -5 -6 -9 -15 -9 -20 0 -6 7 -2 15 8 13 17 15 18 15 3 0 -9 5 -17 10
-17 6 0 10 4 10 9 0 6 -4 13 -10 16 -12 7 -13 25 -2 25 4 0 21 -22 37 -50 17
-27 36 -50 43 -50 6 0 12 -5 12 -10 0 -6 9 -20 19 -32 16 -16 18 -26 10 -46
-9 -23 -8 -24 7 -11 16 13 17 11 10 -15 -6 -25 -5 -28 14 -23 28 7 42 -21 30
-62 -10 -35 3 -51 19 -24 8 14 11 15 12 3 1 -8 1 -21 0 -27 -1 -7 4 -13 11
-13 9 0 9 -3 0 -12 -21 -21 -13 -29 13 -12 23 15 25 15 25 0 0 -9 -5 -16 -11
-16 -5 0 -7 -5 -4 -10 20 -32 25 23 25 251 l0 249 -155 0 c-126 0 -155 -3
-155 -14z"/>
<path d="M9300 8460 c0 -5 5 -10 11 -10 5 0 7 5 4 10 -3 6 -8 10 -11 10 -2 0
-4 -4 -4 -10z"/>
<path d="M10450 8159 c-99 -9 -122 -15 -170 -37 -40 -19 -54 -30 -63 -54 -3
-10 -13 -18 -22 -18 -17 0 -16 3 -20 -68 -3 -43 -1 -52 11 -48 8 3 21 3 29 0
12 -5 13 -10 4 -20 -9 -11 -8 -14 4 -14 9 0 17 10 19 22 2 12 9 23 17 26 11 4
12 -2 7 -24 -4 -16 -12 -32 -18 -35 -6 -4 -8 -14 -5 -23 10 -24 -3 -46 -26
-46 -11 0 -17 -3 -14 -7 4 -3 -1 -12 -11 -19 -15 -12 -15 -15 -2 -24 10 -6 11
-10 3 -10 -7 0 -13 -6 -13 -14 0 -7 -16 -24 -35 -37 -19 -13 -35 -30 -35 -36
0 -17 -17 -17 -22 -1 -3 8 -9 4 -17 -10 -7 -13 -21 -22 -36 -22 -19 0 -25 -5
-25 -21 0 -17 -6 -20 -32 -18 -18 1 -44 1 -57 0 -20 -1 -21 -3 -11 -16 7 -8 8
-15 3 -15 -5 0 -9 -9 -10 -20 -2 -18 15 -29 56 -34 10 -2 19 -18 24 -42 27
-122 78 -254 99 -254 4 0 8 -11 8 -25 0 -31 20 -76 31 -69 5 3 6 -2 3 -10 -3
-8 -2 -21 2 -28 5 -7 9 -17 9 -23 0 -5 8 -27 17 -47 13 -30 23 -38 53 -44 23
-4 52 -21 76 -45 34 -34 38 -41 29 -64 -13 -35 -14 -32 23 -48 54 -24 67 -27
67 -14 0 9 2 9 8 0 4 -7 17 -14 27 -16 11 -2 28 -7 38 -10 9 -4 23 -9 31 -11
8 -3 22 -21 31 -40 10 -20 24 -36 31 -36 8 0 14 -7 14 -15 0 -8 5 -15 10 -15
10 0 14 21 11 48 -1 6 3 12 9 12 18 0 10 32 -10 37 -32 9 -7 39 46 54 43 13
104 59 104 78 0 5 -14 7 -32 5 -18 -2 -35 1 -40 8 -6 10 -8 10 -8 1 0 -22
-147 -8 -240 23 -67 21 -95 37 -135 74 -27 26 -58 50 -68 53 -9 4 -20 15 -23
24 -3 10 -16 43 -29 73 -21 49 -32 80 -35 95 -1 3 -5 19 -11 37 -5 17 -9 64
-10 102 -1 39 -6 77 -12 84 -5 7 -7 16 -3 19 4 4 11 1 16 -7 8 -13 11 -12 24
5 14 19 13 20 -12 25 -17 3 -28 12 -30 25 -2 18 -2 18 8 3 13 -22 30 -23 30
-3 0 8 5 15 11 15 6 0 9 -7 5 -15 -3 -9 3 -19 14 -25 23 -12 17 -37 -11 -45
-22 -7 -26 -25 -5 -25 15 0 66 -42 66 -54 0 -3 -9 -6 -20 -6 -11 0 -20 5 -20
10 0 6 -6 10 -14 10 -8 0 -17 6 -20 13 -3 6 -3 -13 0 -43 4 -30 7 -63 8 -72 0
-9 4 -14 8 -12 4 3 8 -4 8 -15 0 -12 5 -21 11 -21 6 0 9 7 6 15 -4 8 -2 17 3
20 6 4 10 -10 10 -30 0 -21 -4 -34 -10 -30 -5 3 -7 0 -4 -9 3 -8 12 -12 20 -9
8 3 14 0 14 -7 0 -6 5 -8 10 -5 13 8 13 -11 -1 -38 -10 -21 -10 -21 6 -2 11
13 13 30 9 55 -7 39 -14 52 -14 27 0 -9 -4 -17 -10 -17 -5 0 -7 7 -4 15 3 8 1
37 -6 65 -10 42 -10 52 3 65 9 8 23 15 31 15 9 0 16 5 16 10 0 6 -4 10 -10 10
-5 0 -10 5 -10 10 0 6 7 10 15 10 8 0 15 -5 15 -10 0 -6 12 -16 26 -22 22 -10
28 -10 40 6 12 17 14 15 20 -22 4 -24 11 -39 16 -36 6 4 8 22 5 40 -3 19 -2
34 4 34 5 0 9 -13 9 -29 0 -24 5 -29 31 -35 17 -3 39 -1 50 5 20 10 50 1 52
-17 1 -5 7 -8 14 -6 7 2 13 -3 13 -10 0 -10 2 -10 9 1 5 8 23 14 41 13 28 -1
30 1 18 16 -11 13 -11 15 4 10 24 -10 29 1 11 29 -14 21 -14 26 -2 34 8 5 21
9 30 9 15 0 34 25 31 41 -1 4 17 11 39 17 35 9 47 7 75 -9 19 -10 41 -19 50
-19 8 0 19 -11 24 -25 5 -14 14 -25 19 -25 5 0 12 -8 15 -17 4 -15 5 -15 4 2
-1 63 -1 63 100 111 53 25 104 47 112 49 17 2 27 55 10 55 -6 0 -20 -5 -31
-10 -15 -8 -19 -7 -19 4 0 8 9 18 20 21 11 3 20 12 20 18 0 7 4 6 10 -3 7 -10
10 13 10 75 0 50 -4 97 -9 104 -6 10 -8 0 -4 -27 4 -30 2 -42 -7 -42 -7 0 -10
7 -7 14 4 10 1 13 -8 10 -7 -3 -24 0 -37 7 -13 7 -29 14 -36 15 -8 1 -21 9
-30 17 -10 8 -33 22 -52 30 l-35 15 38 1 c21 1 36 5 32 10 -3 6 -13 9 -23 9
-9 -1 -42 4 -72 10 -52 11 -165 20 -299 24 -34 1 -57 4 -52 7 5 4 -1 11 -15
18 -24 11 -29 7 -25 -24 1 -7 -3 -13 -9 -13 -12 0 -30 43 -29 68 0 14 2 13 8
-2 7 -19 8 -19 14 3 3 14 10 20 17 16 7 -4 16 -1 21 6 6 10 11 11 19 3 7 -7
25 -9 43 -5 49 10 216 1 192 -10 -17 -8 -16 -9 5 -4 14 3 35 8 48 11 12 4 22
2 21 -2 -4 -22 3 -23 32 -8 26 13 33 14 40 2 6 -8 12 -9 17 -3 4 6 13 11 21
13 21 5 71 -18 68 -32 -1 -7 10 -10 28 -8 54 5 57 8 38 47 -13 26 -21 34 -35
29 -10 -3 -25 2 -34 10 -9 9 -19 14 -24 11 -13 -8 -80 24 -80 38 0 7 -13 20
-29 30 -33 19 -45 22 -36 7 3 -5 1 -10 -4 -10 -10 0 -15 14 -12 33 0 4 -11 7
-25 7 -17 0 -23 -4 -18 -12 4 -6 -3 -4 -17 5 -26 18 -64 23 -54 7 3 -5 2 -10
-4 -10 -5 0 -11 5 -13 12 -5 15 -154 19 -268 7z m358 -148 c9 -5 3 -8 -17 -9
-17 0 -31 4 -31 9 0 11 30 12 48 0z m-418 -45 c0 -3 -4 -8 -10 -11 -5 -3 -10
-1 -10 4 0 6 5 11 10 11 6 0 10 -2 10 -4z m40 -5 c0 -6 -4 -13 -10 -16 -5 -3
-10 1 -10 9 0 9 5 16 10 16 6 0 10 -4 10 -9z m-100 -35 c0 -11 -33 -36 -41
-31 -15 10 -10 28 6 22 8 -4 17 -2 20 3 6 10 15 13 15 6z m96 -34 c-4 -3 -12
0 -18 6 -10 10 -15 7 -25 -10 -12 -22 -12 -23 -13 -2 0 27 41 48 53 27 5 -8 6
-17 3 -21z m314 -32 c-7 -5 -20 -5 -29 -2 -13 5 -11 8 7 10 12 2 22 9 23 15 0
7 3 7 6 -2 3 -7 0 -17 -7 -21z m155 10 c18 -8 17 -9 -7 -9 -16 -1 -28 4 -28 9
0 12 8 12 35 0z m-605 -31 c0 -5 -4 -9 -10 -9 -5 0 -10 7 -10 16 0 8 5 12 10
9 6 -3 10 -10 10 -16z m498 3 c2 -7 -3 -12 -12 -12 -9 0 -16 7 -16 16 0 17 22
14 28 -4z m88 -21 c-2 -3 13 -5 35 -3 22 3 39 0 39 -6 0 -6 14 -13 31 -17 30
-7 129 -94 129 -114 0 -15 -35 -23 -67 -16 -44 10 -76 27 -103 56 -14 14 -37
34 -52 44 -16 9 -28 25 -29 34 0 11 -2 12 -6 3 -4 -10 -8 -10 -19 -1 -19 16 0
39 26 32 11 -3 18 -8 16 -12z m-156 1 c0 -5 10 -14 23 -20 21 -10 20 -11 -11
-11 -38 -1 -75 16 -67 30 8 11 55 12 55 1z m-450 -16 c0 -17 -30 -49 -38 -42
-3 3 2 14 11 24 10 10 14 22 10 25 -3 4 -1 7 5 7 7 0 12 -6 12 -14z m17 -73
c-9 -9 -20 -13 -24 -9 -4 4 -1 11 7 16 25 16 35 11 17 -7z m383 -19 c0 -8 -5
-12 -10 -9 -6 4 -8 11 -5 16 9 14 15 11 15 -7z m-163 0 c-3 -3 -12 -4 -19 -1
-8 3 -5 6 6 6 11 1 17 -2 13 -5z m276 -8 c18 -14 24 -46 8 -46 -5 0 -15 -2
-23 -5 -9 -4 -13 5 -14 30 -1 38 3 41 29 21z m-278 -16 c3 -6 -1 -7 -10 -4
-11 5 -14 2 -9 -10 3 -9 10 -16 15 -16 5 0 9 -7 9 -15 0 -9 -6 -12 -17 -8 -11
4 -14 3 -9 -5 4 -7 2 -12 -5 -12 -7 0 -9 10 -7 24 4 17 1 23 -9 19 -19 -8 -16
14 5 26 22 13 29 13 37 1z m481 -50 c8 0 13 -4 9 -9 -8 -14 -58 -8 -63 7 -2 6
3 12 12 12 9 0 17 6 17 13 1 6 3 4 6 -5 2 -10 11 -18 19 -18z m-776 -25 c0 -5
-5 -3 -10 5 -5 8 -10 20 -10 25 0 6 5 3 10 -5 5 -8 10 -19 10 -25z m-34 -27
c-20 -14 -24 -8 -13 17 10 20 13 22 18 7 4 -9 1 -20 -5 -24z m234 17 c0 -8 -4
-15 -9 -15 -5 0 -11 7 -15 15 -3 9 0 15 9 15 8 0 15 -7 15 -15z m544 -6 c-3
-5 -11 -9 -19 -9 -7 0 -15 -6 -18 -12 -2 -7 -8 -10 -12 -6 -14 13 2 33 29 34
14 1 23 -2 20 -7z m-965 -28 c18 -14 22 -23 16 -37 -8 -18 -8 -18 -12 -1 -3
10 -17 20 -34 24 -23 4 -27 8 -18 19 15 18 19 17 48 -5z m78 -1 c-1 -20 -8
-25 -20 -14 -7 8 3 34 13 34 5 0 8 -9 7 -20z m-37 0 c0 -5 -4 -10 -10 -10 -5
0 -10 5 -10 10 0 6 5 10 10 10 6 0 10 -4 10 -10z m90 6 c0 -2 -7 -7 -16 -10
-8 -3 -12 -2 -9 4 6 10 25 14 25 6z m637 -49 c-2 -6 -9 -13 -15 -15 -7 -2 -10
2 -6 12 3 9 1 16 -5 16 -6 0 -11 -5 -11 -12 0 -6 -3 -9 -6 -5 -4 3 -4 13 0 22
5 13 10 14 26 5 12 -6 20 -16 17 -23z m53 13 c0 -13 -28 -25 -38 -16 -3 4 0
11 8 16 20 13 30 12 30 0z m60 -30 c0 -5 -4 -10 -10 -10 -5 0 -10 5 -10 10 0
6 5 10 10 10 6 0 10 -4 10 -10z m-185 -20 c-3 -5 -10 -10 -16 -10 -5 0 -9 5
-9 10 0 6 7 10 16 10 8 0 12 -4 9 -10z m165 0 c8 -5 11 -10 5 -10 -5 0 -17 5
-25 10 -8 5 -10 10 -5 10 6 0 17 -5 25 -10z m-195 -20 c3 -5 1 -10 -4 -10 -6
0 -11 5 -11 10 0 6 2 10 4 10 3 0 8 -4 11 -10z m-248 -82 c-3 -8 -6 -5 -6 6
-1 11 2 17 5 13 3 -3 4 -12 1 -19z m183 -40 c-1 -8 -6 -6 -15 6 -20 26 -19 42
0 22 8 -8 15 -21 15 -28z m-30 2 c0 -5 -7 -10 -16 -10 -8 0 -12 5 -9 10 3 6
10 10 16 10 5 0 9 -4 9 -10z m-380 -30 c0 -11 -2 -20 -4 -20 -2 0 -6 9 -9 20
-3 11 -1 20 4 20 5 0 9 -9 9 -20z m540 -449 c0 -14 -38 -29 -63 -24 -44 9 -31
28 18 29 25 1 45 -1 45 -5z m-310 -31 c0 -5 -7 -7 -15 -4 -8 4 -15 8 -15 10 0
2 7 4 15 4 8 0 15 -4 15 -10z m157 -132 c-3 -8 -6 -5 -6 6 -1 11 2 17 5 13 3
-3 4 -12 1 -19z"/>
<path d="M9235 8040 c3 -5 11 -10 16 -10 6 0 7 5 4 10 -3 6 -11 10 -16 10 -6
0 -7 -4 -4 -10z"/>
<path d="M10565 7950 c3 -5 8 -10 11 -10 2 0 4 5 4 10 0 6 -5 10 -11 10 -5 0
-7 -4 -4 -10z"/>
<path d="M10200 7880 c0 -5 5 -10 10 -10 6 0 10 5 10 10 0 6 -4 10 -10 10 -5
0 -10 -4 -10 -10z"/>
<path d="M11020 7860 c0 -5 5 -10 10 -10 6 0 10 5 10 10 0 6 -4 10 -10 10 -5
0 -10 -4 -10 -10z"/>
<path d="M10205 7850 c-3 -5 -1 -10 4 -10 6 0 11 5 11 10 0 6 -2 10 -4 10 -3
0 -8 -4 -11 -10z"/>
<path d="M10730 7471 c0 -6 5 -13 10 -16 6 -3 10 -1 10 5 0 7 7 10 15 6 8 -3
15 -1 15 4 0 6 -11 10 -25 10 -14 0 -25 -4 -25 -9z"/>
<path d="M10697 7440 c-3 -12 0 -20 7 -20 18 0 25 10 19 26 -7 20 -20 17 -26
-6z"/>
<path d="M10637 7393 c6 -15 45 -14 50 2 1 6 -10 10 -26 11 -21 1 -28 -3 -24
-13z"/>
<path d="M10675 7360 c3 -5 8 -10 11 -10 2 0 4 5 4 10 0 6 -5 10 -11 10 -5 0
-7 -4 -4 -10z"/>
<path d="M10480 7329 c0 -5 5 -7 10 -4 6 3 10 8 10 11 0 2 -4 4 -10 4 -5 0
-10 -5 -10 -11z"/>
<path d="M10250 7319 c0 -5 5 -7 10 -4 6 3 10 8 10 11 0 2 -4 4 -10 4 -5 0
-10 -5 -10 -11z"/>
<path d="M10430 7321 c0 -5 5 -13 10 -16 6 -3 10 -2 10 4 0 5 -4 13 -10 16 -5
3 -10 2 -10 -4z"/>
<path d="M10271 7224 c0 -11 3 -14 6 -6 3 7 2 16 -1 19 -3 4 -6 -2 -5 -13z"/>
<path d="M10350 7024 c30 -38 38 -43 59 -37 22 6 30 25 9 22 -29 -3 -48 2 -45
13 1 6 -7 14 -18 16 -18 4 -18 3 -5 -14z"/>
<path d="M10492 6964 c-11 -11 -17 -12 -27 -4 -8 7 -22 10 -32 7 -15 -3 -13
-6 9 -15 35 -15 89 -5 81 14 -7 18 -15 17 -31 -2z"/>
<path d="M9447 6854 c3 -8 11 -14 19 -14 21 0 17 17 -5 23 -14 3 -18 1 -14 -9z"/>
<path d="M9380 6828 c0 -10 18 -9 45 2 16 6 14 8 -12 7 -18 0 -33 -4 -33 -9z"/>
<path d="M9330 6820 c-12 -8 -10 -10 8 -10 13 0 20 4 17 10 -7 12 -6 12 -25 0z"/>
<path d="M10626 6781 c-17 -6 -17 -8 -4 -14 10 -3 19 0 22 9 3 8 4 14 3 13 -1
0 -11 -4 -21 -8z"/>
<path d="M10641 6734 c0 -11 3 -14 6 -6 3 7 2 16 -1 19 -3 4 -6 -2 -5 -13z"/>
<path d="M9240 6629 c0 -5 5 -7 10 -4 6 3 10 8 10 11 0 2 -4 4 -10 4 -5 0 -10
-5 -10 -11z"/>
<path d="M6208 6402 c-12 -5 -15 -11 -8 -21 7 -12 11 -12 24 -2 13 11 16 11
16 0 0 -10 3 -10 12 -1 10 10 10 15 -2 22 -17 11 -19 11 -42 2z"/>
<path d="M6025 6274 c9 -9 19 -13 23 -10 3 4 0 11 -8 16 -24 15 -33 11 -15 -6z"/>
<path d="M11130 6283 c-16 -6 -60 -52 -60 -63 0 -3 6 -12 12 -18 10 -10 10
-15 -2 -22 -8 -5 -12 -10 -8 -10 4 0 3 -11 -2 -25 -7 -19 -6 -25 4 -25 8 0 28
-12 45 -26 l31 -26 0 111 c0 61 -1 111 -2 110 -2 0 -10 -3 -18 -6z"/>
<path d="M10040 6080 c0 -5 5 -10 10 -10 6 0 10 5 10 10 0 6 -4 10 -10 10 -5
0 -10 -4 -10 -10z"/>
<path d="M10017 6053 c-14 -14 -6 -23 21 -22 16 0 21 3 12 6 -8 3 -18 10 -21
15 -3 4 -8 5 -12 1z"/>
<path d="M9986 6035 c-3 -8 -1 -15 4 -15 6 0 10 7 10 15 0 8 -2 15 -4 15 -2 0
-6 -7 -10 -15z"/>
<path d="M11088 6043 c7 -3 16 -2 19 1 4 3 -2 6 -13 5 -11 0 -14 -3 -6 -6z"/>
<path d="M6180 6032 c0 -12 34 -42 47 -42 6 0 30 -16 54 -35 49 -39 59 -42 59
-19 0 8 -4 13 -8 10 -5 -3 -19 5 -33 17 -13 12 -41 31 -61 42 -21 11 -38 23
-38 27 0 5 -4 8 -10 8 -5 0 -10 -4 -10 -8z"/>
<path d="M5796 5993 c-3 -4 8 -13 25 -20 23 -10 30 -18 27 -35 -2 -16 -9 -22
-20 -20 -11 2 -18 -3 -18 -14 0 -11 -5 -14 -16 -10 -9 3 -24 6 -35 6 -11 0
-19 7 -19 16 0 10 -6 14 -15 11 -8 -4 -17 -2 -20 2 -3 5 -14 7 -25 4 -11 -3
-27 0 -35 7 -15 13 -17 10 -19 -24 -1 -11 -7 -21 -15 -24 -10 -3 -11 2 -6 19
7 23 7 24 -9 4 -8 -11 -16 -28 -16 -38 0 -10 -7 -20 -15 -23 -8 -4 -15 -14
-15 -23 0 -12 6 -9 24 12 21 25 25 26 39 12 17 -17 32 -20 22 -6 -3 5 -1 12 5
16 6 3 13 -1 16 -10 4 -9 12 -14 20 -11 7 3 18 -2 24 -10 7 -8 9 -14 4 -14 -5
0 6 -9 24 -20 34 -21 40 -35 20 -43 -8 -4 -7 -6 4 -6 9 -1 19 5 21 12 4 9 8 9
14 1 4 -7 20 -10 36 -9 21 3 27 -1 27 -16 0 -10 5 -19 10 -19 6 0 10 5 10 12
0 7 6 6 18 -4 34 -29 45 -32 37 -9 -5 16 -3 20 9 15 9 -3 16 -10 16 -15 0 -5
9 -9 19 -9 11 0 23 -9 26 -21 6 -16 9 -18 22 -8 12 11 20 7 44 -19 17 -18 26
-37 23 -46 -4 -10 -1 -16 8 -16 8 0 29 -16 48 -35 33 -34 33 -36 15 -49 -18
-13 -37 -12 -60 4 -5 4 -24 10 -42 13 -35 7 -56 -9 -26 -19 10 -3 33 -13 52
-21 18 -8 44 -13 57 -10 13 2 21 0 18 -4 -2 -4 11 -11 31 -15 19 -3 35 -12 35
-19 0 -7 9 -15 20 -18 26 -7 35 -33 21 -61 -7 -12 -12 -38 -12 -56 -1 -50 -18
-100 -35 -100 -8 0 -14 -4 -14 -10 0 -5 -7 -10 -15 -10 -8 0 -20 -10 -26 -22
-7 -13 -18 -27 -24 -33 -13 -11 -28 -45 -19 -45 13 0 53 33 49 40 -3 5 3 6 12
4 18 -5 25 -1 119 75 l54 43 0 93 0 93 -29 5 c-27 6 -36 17 -47 62 -2 6 -6 20
-10 33 -4 13 -2 22 5 22 6 0 11 -6 11 -14 0 -12 24 -24 47 -24 3 0 10 -6 14
-14 6 -9 9 -5 9 13 0 14 -3 29 -7 33 -11 11 -10 70 2 78 5 4 -4 18 -20 33 -23
20 -27 27 -16 34 11 7 11 10 0 17 -7 4 -14 3 -17 -4 -2 -7 -8 -12 -14 -12 -7
0 -7 5 1 14 9 10 4 21 -22 48 -18 20 -42 38 -53 42 -10 3 -31 17 -46 31 -23
21 -32 24 -47 15 -29 -15 -37 -13 -49 16 -7 14 -17 22 -22 19 -6 -3 -10 -1
-10 4 0 6 5 11 10 11 24 0 7 19 -22 25 -18 4 -37 10 -43 13 -15 9 -59 8 -66
-2 -4 -4 -9 -4 -13 2 -3 6 1 18 10 26 14 15 14 16 -3 16 -11 0 -24 5 -31 12
-8 8 -15 8 -27 -2 -11 -9 -18 -10 -28 -1 -8 6 -17 8 -21 4z m74 -23 c8 -5 12
-11 10 -14 -3 -2 -14 2 -24 10 -22 15 -10 19 14 4z m360 -285 c13 -15 24 -95
13 -95 -14 0 -93 42 -93 49 0 4 11 14 25 21 14 7 25 19 25 27 0 17 15 17 30
-2z m-40 -125 c0 -5 7 -10 15 -10 19 0 19 -4 0 -41 -10 -18 -20 -27 -27 -22
-9 5 -9 8 0 11 14 4 16 42 2 42 -5 0 -10 7 -10 15 0 8 5 15 10 15 6 0 10 -4
10 -10z"/>
<path d="M6275 5827 c4 -12 15 -29 26 -39 10 -9 19 -22 19 -30 0 -8 4 -18 9
-23 5 -6 11 -21 14 -35 2 -14 5 3 6 38 1 50 -2 62 -15 62 -8 0 -13 3 -10 8 2
4 -9 15 -25 25 -30 17 -30 17 -24 -6z"/>
<path d="M5402 5795 c0 -16 2 -22 5 -12 2 9 2 23 0 30 -3 6 -5 -1 -5 -18z"/>
<path d="M5780 5730 c8 -5 20 -10 25 -10 6 0 3 5 -5 10 -8 5 -19 10 -25 10 -5
0 -3 -5 5 -10z"/>
<path d="M10797 5709 c4 -13 8 -18 11 -10 2 7 -1 18 -6 23 -8 8 -9 4 -5 -13z"/>
<path d="M5814 5707 c-11 -13 -4 -52 8 -45 3 2 15 -6 27 -16 19 -17 21 -17 21
-2 0 9 -11 22 -25 28 -25 11 -34 28 -15 28 6 0 10 5 10 10 0 14 -13 12 -26 -3z"/>
<path d="M10766 5703 c-11 -11 -6 -23 9 -23 8 0 15 4 15 9 0 13 -16 22 -24 14z"/>
<path d="M10837 5693 c-4 -3 -7 -11 -7 -17 0 -6 5 -5 12 2 6 6 9 14 7 17 -3 3
-9 2 -12 -2z"/>
<path d="M10870 5690 c0 -5 5 -10 10 -10 6 0 10 5 10 10 0 6 -4 10 -10 10 -5
0 -10 -4 -10 -10z"/>
<path d="M5450 5681 c-8 -6 -18 -7 -22 -5 -12 8 -10 -14 4 -36 7 -10 9 -23 5
-27 -5 -4 -12 -1 -17 7 -7 10 -9 -6 -8 -50 1 -63 1 -64 8 -20 4 25 8 41 9 35
1 -5 6 -3 11 5 6 9 10 10 10 3 0 -6 -5 -15 -10 -18 -6 -4 -8 -21 -5 -38 7 -44
17 -118 18 -145 1 -12 7 -22 12 -22 6 1 8 15 5 33 -3 18 -5 89 -5 160 0 70 0
127 0 127 0 0 -7 -4 -15 -9z"/>
<path d="M10725 5660 c3 -5 3 -10 -2 -10 -4 0 -16 -12 -26 -25 -16 -23 -16
-25 -2 -25 9 0 19 9 22 20 3 11 10 20 17 19 26 -3 35 2 30 16 -4 8 -15 15 -26
15 -10 0 -16 -4 -13 -10z"/>
<path d="M10785 5660 c-3 -5 1 -10 9 -10 9 0 16 5 16 10 0 6 -4 10 -9 10 -6 0
-13 -4 -16 -10z"/>
<path d="M10650 5650 c12 -8 11 -10 -7 -10 -25 0 -30 -14 -11 -26 6 -4 17 1
24 11 14 19 10 35 -9 35 -7 0 -6 -4 3 -10z"/>
<path d="M10496 5585 c4 -8 7 -15 9 -15 2 0 5 7 9 15 3 9 0 15 -9 15 -9 0 -12
-6 -9 -15z"/>
<path d="M5940 5570 c0 -5 5 -10 11 -10 5 0 7 5 4 10 -3 6 -8 10 -11 10 -2 0
-4 -4 -4 -10z"/>
<path d="M5970 5545 c0 -8 5 -15 10 -15 6 0 10 7 10 15 0 8 -4 15 -10 15 -5 0
-10 -7 -10 -15z"/>
<path d="M10189 5413 c-1 -5 -2 -17 -3 -28 0 -11 -7 -19 -13 -17 -7 1 -13 -2
-13 -8 0 -5 11 -10 25 -10 22 0 25 4 25 35 0 19 -4 35 -10 35 -5 0 -10 -3 -11
-7z"/>
<path d="M10100 5319 c0 -5 5 -7 10 -4 6 3 10 8 10 11 0 2 -4 4 -10 4 -5 0
-10 -5 -10 -11z"/>
<path d="M10315 5180 c-8 -13 -1 -24 14 -19 6 3 7 10 2 18 -6 10 -10 10 -16 1z"/>
<path d="M5216 5129 c3 -6 0 -15 -7 -20 -11 -7 -10 -9 4 -9 9 0 17 5 17 10 0
6 8 10 18 10 14 0 15 2 2 10 -20 13 -43 13 -34 -1z"/>
<path d="M5051 5074 c0 -11 3 -14 6 -6 3 7 2 16 -1 19 -3 4 -6 -2 -5 -13z"/>
<path d="M5000 5055 c0 -8 -5 -15 -11 -15 -6 0 -9 -9 -6 -20 3 -13 0 -20 -9
-20 -19 0 -18 -16 1 -24 10 -4 21 7 35 36 19 39 19 58 -1 58 -5 0 -9 -7 -9
-15z"/>
<path d="M4930 4940 c0 -5 5 -10 10 -10 6 0 10 5 10 10 0 6 -4 10 -10 10 -5 0
-10 -4 -10 -10z"/>
<path d="M6130 4850 c0 -5 9 -10 21 -10 11 0 17 5 14 10 -3 6 -13 10 -21 10
-8 0 -14 -4 -14 -10z"/>
<path d="M4877 4670 c-3 -11 -1 -20 4 -20 5 0 9 9 9 20 0 11 -2 20 -4 20 -2 0
-6 -9 -9 -20z"/>
<path d="M5440 4549 c0 -10 8 -20 18 -23 49 -16 110 -65 117 -94 3 -17 14 -33
23 -37 15 -6 13 -9 -8 -21 -14 -9 -17 -13 -8 -10 20 6 68 -29 68 -50 0 -8 -10
-14 -24 -14 -19 0 -22 -4 -18 -25 4 -24 5 -24 18 -8 10 14 13 15 14 4 0 -11 4
-9 15 5 14 19 14 19 15 0 0 -11 7 -28 17 -38 9 -10 13 -21 9 -25 -4 -4 -11 -1
-16 7 -7 11 -10 11 -10 2 0 -7 12 -17 26 -22 39 -15 77 -47 64 -55 -14 -9 -3
-24 25 -35 17 -6 23 -16 21 -33 -4 -31 27 -53 44 -32 15 18 41 20 38 3 -4 -18
122 -21 192 -6 30 7 61 12 68 11 6 0 12 7 12 16 0 12 12 17 49 19 42 2 52 0
61 -18 6 -11 17 -20 25 -20 8 0 15 -5 15 -11 0 -5 5 -7 10 -4 6 3 10 1 10 -4
0 -27 15 -8 17 21 3 36 -17 63 -53 72 -15 4 -24 14 -24 26 0 12 -7 20 -16 20
-14 0 -14 3 -4 15 11 13 10 14 -5 8 -14 -5 -17 -3 -12 10 3 9 3 17 -2 17 -7 0
-15 6 -73 55 -31 27 -67 45 -88 45 -15 0 -44 22 -120 92 -14 12 -28 22 -32 20
-5 -1 -8 1 -8 5 0 5 -17 8 -38 9 -20 0 -57 10 -81 22 -25 12 -51 22 -58 22 -8
0 -11 5 -8 10 3 6 1 10 -4 10 -6 0 -11 -4 -11 -10 0 -5 -4 -10 -10 -10 -5 0
-10 6 -10 14 0 9 -8 12 -25 8 -16 -3 -25 0 -25 8 0 8 -8 10 -24 6 -16 -4 -30
0 -42 11 -9 9 -31 19 -48 20 -17 2 -43 5 -58 7 -21 2 -28 -2 -28 -15z m330
-231 c0 -4 -6 -8 -14 -8 -14 0 -28 35 -18 45 7 6 32 -23 32 -37z m54 -15 c0
-13 5 -23 13 -23 7 0 13 -7 13 -15 0 -9 -6 -12 -15 -8 -9 3 -22 -2 -30 -13
-14 -18 -14 -18 -15 3 0 12 -4 24 -9 27 -4 3 -6 17 -3 31 6 34 47 32 46 -2z
m76 -59 c0 -8 5 -14 11 -14 5 0 7 -4 4 -10 -3 -5 3 -10 14 -10 11 0 23 -4 26
-10 3 -5 28 -10 55 -10 26 0 50 -5 52 -11 2 -6 19 -13 38 -15 19 -2 41 -5 48
-6 13 -1 16 -26 6 -53 -5 -13 -8 -14 -15 -3 -7 10 -14 9 -40 -6 l-31 -18 7 22
c7 22 5 22 -31 15 -52 -10 -86 -8 -96 7 -5 10 -11 8 -22 -7 -8 -11 -18 -16
-23 -11 -4 5 -2 11 5 13 10 4 10 8 0 20 -10 12 -9 18 7 29 10 8 16 16 13 20
-4 3 -16 -4 -27 -15 -27 -27 -39 -26 -51 4 -5 14 -16 25 -25 25 -12 0 -13 3
-3 19 7 11 15 18 19 16 3 -3 14 4 24 15 19 21 35 18 35 -6z"/>
<path d="M6335 4511 c-3 -5 -1 -12 5 -16 5 -3 10 1 10 9 0 18 -6 21 -15 7z"/>
<path d="M5600 4319 c0 -5 5 -7 10 -4 6 3 10 8 10 11 0 2 -4 4 -10 4 -5 0 -10
-5 -10 -11z"/>
<path d="M5605 4180 c3 -5 13 -10 21 -10 8 0 12 5 9 10 -3 6 -13 10 -21 10 -8
0 -12 -4 -9 -10z"/>
<path d="M5640 4150 c0 -5 10 -10 23 -10 18 0 19 2 7 10 -19 13 -30 13 -30 0z"/>
<path d="M5700 4090 c0 -5 5 -10 10 -10 6 0 10 5 10 10 0 6 -4 10 -10 10 -5 0
-10 -4 -10 -10z"/>
<path d="M5820 4016 c0 -2 7 -9 15 -16 13 -11 14 -10 9 4 -5 14 -24 23 -24 12z"/>
<path d="M6125 3630 c-16 -16 -26 -32 -23 -35 9 -9 48 18 48 33 0 7 4 10 10 7
6 -3 7 1 4 9 -3 9 -7 16 -8 15 0 0 -14 -13 -31 -29z"/>
<path d="M6060 3569 c0 -5 5 -7 10 -4 6 3 10 8 10 11 0 2 -4 4 -10 4 -5 0 -10
-5 -10 -11z"/>
<path d="M5940 3520 c0 -5 5 -10 10 -10 6 0 10 5 10 10 0 6 -4 10 -10 10 -5 0
-10 -4 -10 -10z"/>
<path d="M5970 3520 c0 -5 4 -10 9 -10 6 0 13 5 16 10 3 6 -1 10 -9 10 -9 0
-16 -4 -16 -10z"/>
<path d="M5900 3490 c0 -5 7 -10 16 -10 8 0 12 5 9 10 -3 6 -10 10 -16 10 -5
0 -9 -4 -9 -10z"/>
<path d="M5835 3470 c8 -13 46 -19 42 -7 -2 6 -13 11 -25 12 -11 1 -19 -2 -17
-5z"/>
</g>
</svg>
